<?xml version="1.0" encoding="utf-8" standalone="no"?>
<!DOCTYPE svg PUBLIC "-//W3C//DTD SVG 1.1//EN"
  "http://www.w3.org/Graphics/SVG/1.1/DTD/svg11.dtd">
<!-- Created with matplotlib (http://matplotlib.org/) -->
<svg height="260.322375pt" version="1.1" viewBox="0 0 626.770812 260.322375" width="626.770812pt" xmlns="http://www.w3.org/2000/svg" xmlns:xlink="http://www.w3.org/1999/xlink">
 <defs>
  <style type="text/css">
*{stroke-linecap:butt;stroke-linejoin:round;}
  </style>
 </defs>
 <g id="figure_1">
  <g id="patch_1">
   <path d="M 0 260.322375 
L 626.770812 260.322375 
L 626.770812 0 
L 0 0 
z
" style="fill:#ffffff;"/>
  </g>
  <g id="axes_1">
   <g id="patch_2">
    <path d="M 34.240625 222.766125 
L 391.360625 222.766125 
L 391.360625 22.318125 
L 34.240625 22.318125 
z
" style="fill:#ffffff;"/>
   </g>
   <g id="matplotlib.axis_1">
    <g id="xtick_1">
     <g id="line2d_1">
      <path clip-path="url(#pc1b5682d30)" d="M 69.952625 222.766125 
L 69.952625 22.318125 
" style="fill:none;stroke:#b0b0b0;stroke-linecap:square;stroke-width:0.8;"/>
     </g>
     <g id="line2d_2">
      <defs>
       <path d="M 0 0 
L 0 3.5 
" id="mef245b19fb" style="stroke:#000000;stroke-width:0.8;"/>
      </defs>
      <g>
       <use style="stroke:#000000;stroke-width:0.8;" x="69.952625" xlink:href="#mef245b19fb" y="222.766125"/>
      </g>
     </g>
     <g id="text_1">
      <!-- 4 -->
      <defs>
       <path d="M 37.796875 64.3125 
L 12.890625 25.390625 
L 37.796875 25.390625 
z
M 35.203125 72.90625 
L 47.609375 72.90625 
L 47.609375 25.390625 
L 58.015625 25.390625 
L 58.015625 17.1875 
L 47.609375 17.1875 
L 47.609375 0 
L 37.796875 0 
L 37.796875 17.1875 
L 4.890625 17.1875 
L 4.890625 26.703125 
z
" id="DejaVuSans-34"/>
      </defs>
      <g transform="translate(66.771375 237.364563)scale(0.1 -0.1)">
       <use xlink:href="#DejaVuSans-34"/>
      </g>
     </g>
    </g>
    <g id="xtick_2">
     <g id="line2d_3">
      <path clip-path="url(#pc1b5682d30)" d="M 93.760625 222.766125 
L 93.760625 22.318125 
" style="fill:none;stroke:#b0b0b0;stroke-linecap:square;stroke-width:0.8;"/>
     </g>
     <g id="line2d_4">
      <g>
       <use style="stroke:#000000;stroke-width:0.8;" x="93.760625" xlink:href="#mef245b19fb" y="222.766125"/>
      </g>
     </g>
     <g id="text_2">
      <!-- 5 -->
      <defs>
       <path d="M 10.796875 72.90625 
L 49.515625 72.90625 
L 49.515625 64.59375 
L 19.828125 64.59375 
L 19.828125 46.734375 
Q 21.96875 47.46875 24.109375 47.828125 
Q 26.265625 48.1875 28.421875 48.1875 
Q 40.625 48.1875 47.75 41.5 
Q 54.890625 34.8125 54.890625 23.390625 
Q 54.890625 11.625 47.5625 5.09375 
Q 40.234375 -1.421875 26.90625 -1.421875 
Q 22.3125 -1.421875 17.546875 -0.640625 
Q 12.796875 0.140625 7.71875 1.703125 
L 7.71875 11.625 
Q 12.109375 9.234375 16.796875 8.0625 
Q 21.484375 6.890625 26.703125 6.890625 
Q 35.15625 6.890625 40.078125 11.328125 
Q 45.015625 15.765625 45.015625 23.390625 
Q 45.015625 31 40.078125 35.4375 
Q 35.15625 39.890625 26.703125 39.890625 
Q 22.75 39.890625 18.8125 39.015625 
Q 14.890625 38.140625 10.796875 36.28125 
z
" id="DejaVuSans-35"/>
      </defs>
      <g transform="translate(90.579375 237.364563)scale(0.1 -0.1)">
       <use xlink:href="#DejaVuSans-35"/>
      </g>
     </g>
    </g>
    <g id="xtick_3">
     <g id="line2d_5">
      <path clip-path="url(#pc1b5682d30)" d="M 117.568625 222.766125 
L 117.568625 22.318125 
" style="fill:none;stroke:#b0b0b0;stroke-linecap:square;stroke-width:0.8;"/>
     </g>
     <g id="line2d_6">
      <g>
       <use style="stroke:#000000;stroke-width:0.8;" x="117.568625" xlink:href="#mef245b19fb" y="222.766125"/>
      </g>
     </g>
     <g id="text_3">
      <!-- 6 -->
      <defs>
       <path d="M 33.015625 40.375 
Q 26.375 40.375 22.484375 35.828125 
Q 18.609375 31.296875 18.609375 23.390625 
Q 18.609375 15.53125 22.484375 10.953125 
Q 26.375 6.390625 33.015625 6.390625 
Q 39.65625 6.390625 43.53125 10.953125 
Q 47.40625 15.53125 47.40625 23.390625 
Q 47.40625 31.296875 43.53125 35.828125 
Q 39.65625 40.375 33.015625 40.375 
z
M 52.59375 71.296875 
L 52.59375 62.3125 
Q 48.875 64.0625 45.09375 64.984375 
Q 41.3125 65.921875 37.59375 65.921875 
Q 27.828125 65.921875 22.671875 59.328125 
Q 17.53125 52.734375 16.796875 39.40625 
Q 19.671875 43.65625 24.015625 45.921875 
Q 28.375 48.1875 33.59375 48.1875 
Q 44.578125 48.1875 50.953125 41.515625 
Q 57.328125 34.859375 57.328125 23.390625 
Q 57.328125 12.15625 50.6875 5.359375 
Q 44.046875 -1.421875 33.015625 -1.421875 
Q 20.359375 -1.421875 13.671875 8.265625 
Q 6.984375 17.96875 6.984375 36.375 
Q 6.984375 53.65625 15.1875 63.9375 
Q 23.390625 74.21875 37.203125 74.21875 
Q 40.921875 74.21875 44.703125 73.484375 
Q 48.484375 72.75 52.59375 71.296875 
z
" id="DejaVuSans-36"/>
      </defs>
      <g transform="translate(114.387375 237.364563)scale(0.1 -0.1)">
       <use xlink:href="#DejaVuSans-36"/>
      </g>
     </g>
    </g>
    <g id="xtick_4">
     <g id="line2d_7">
      <path clip-path="url(#pc1b5682d30)" d="M 141.376625 222.766125 
L 141.376625 22.318125 
" style="fill:none;stroke:#b0b0b0;stroke-linecap:square;stroke-width:0.8;"/>
     </g>
     <g id="line2d_8">
      <g>
       <use style="stroke:#000000;stroke-width:0.8;" x="141.376625" xlink:href="#mef245b19fb" y="222.766125"/>
      </g>
     </g>
     <g id="text_4">
      <!-- 7 -->
      <defs>
       <path d="M 8.203125 72.90625 
L 55.078125 72.90625 
L 55.078125 68.703125 
L 28.609375 0 
L 18.3125 0 
L 43.21875 64.59375 
L 8.203125 64.59375 
z
" id="DejaVuSans-37"/>
      </defs>
      <g transform="translate(138.195375 237.364563)scale(0.1 -0.1)">
       <use xlink:href="#DejaVuSans-37"/>
      </g>
     </g>
    </g>
    <g id="xtick_5">
     <g id="line2d_9">
      <path clip-path="url(#pc1b5682d30)" d="M 165.184625 222.766125 
L 165.184625 22.318125 
" style="fill:none;stroke:#b0b0b0;stroke-linecap:square;stroke-width:0.8;"/>
     </g>
     <g id="line2d_10">
      <g>
       <use style="stroke:#000000;stroke-width:0.8;" x="165.184625" xlink:href="#mef245b19fb" y="222.766125"/>
      </g>
     </g>
     <g id="text_5">
      <!-- 8 -->
      <defs>
       <path d="M 31.78125 34.625 
Q 24.75 34.625 20.71875 30.859375 
Q 16.703125 27.09375 16.703125 20.515625 
Q 16.703125 13.921875 20.71875 10.15625 
Q 24.75 6.390625 31.78125 6.390625 
Q 38.8125 6.390625 42.859375 10.171875 
Q 46.921875 13.96875 46.921875 20.515625 
Q 46.921875 27.09375 42.890625 30.859375 
Q 38.875 34.625 31.78125 34.625 
z
M 21.921875 38.8125 
Q 15.578125 40.375 12.03125 44.71875 
Q 8.5 49.078125 8.5 55.328125 
Q 8.5 64.0625 14.71875 69.140625 
Q 20.953125 74.21875 31.78125 74.21875 
Q 42.671875 74.21875 48.875 69.140625 
Q 55.078125 64.0625 55.078125 55.328125 
Q 55.078125 49.078125 51.53125 44.71875 
Q 48 40.375 41.703125 38.8125 
Q 48.828125 37.15625 52.796875 32.3125 
Q 56.78125 27.484375 56.78125 20.515625 
Q 56.78125 9.90625 50.3125 4.234375 
Q 43.84375 -1.421875 31.78125 -1.421875 
Q 19.734375 -1.421875 13.25 4.234375 
Q 6.78125 9.90625 6.78125 20.515625 
Q 6.78125 27.484375 10.78125 32.3125 
Q 14.796875 37.15625 21.921875 38.8125 
z
M 18.3125 54.390625 
Q 18.3125 48.734375 21.84375 45.5625 
Q 25.390625 42.390625 31.78125 42.390625 
Q 38.140625 42.390625 41.71875 45.5625 
Q 45.3125 48.734375 45.3125 54.390625 
Q 45.3125 60.0625 41.71875 63.234375 
Q 38.140625 66.40625 31.78125 66.40625 
Q 25.390625 66.40625 21.84375 63.234375 
Q 18.3125 60.0625 18.3125 54.390625 
z
" id="DejaVuSans-38"/>
      </defs>
      <g transform="translate(162.003375 237.364563)scale(0.1 -0.1)">
       <use xlink:href="#DejaVuSans-38"/>
      </g>
     </g>
    </g>
    <g id="xtick_6">
     <g id="line2d_11">
      <path clip-path="url(#pc1b5682d30)" d="M 188.992625 222.766125 
L 188.992625 22.318125 
" style="fill:none;stroke:#b0b0b0;stroke-linecap:square;stroke-width:0.8;"/>
     </g>
     <g id="line2d_12">
      <g>
       <use style="stroke:#000000;stroke-width:0.8;" x="188.992625" xlink:href="#mef245b19fb" y="222.766125"/>
      </g>
     </g>
     <g id="text_6">
      <!-- 9 -->
      <defs>
       <path d="M 10.984375 1.515625 
L 10.984375 10.5 
Q 14.703125 8.734375 18.5 7.8125 
Q 22.3125 6.890625 25.984375 6.890625 
Q 35.75 6.890625 40.890625 13.453125 
Q 46.046875 20.015625 46.78125 33.40625 
Q 43.953125 29.203125 39.59375 26.953125 
Q 35.25 24.703125 29.984375 24.703125 
Q 19.046875 24.703125 12.671875 31.3125 
Q 6.296875 37.9375 6.296875 49.421875 
Q 6.296875 60.640625 12.9375 67.421875 
Q 19.578125 74.21875 30.609375 74.21875 
Q 43.265625 74.21875 49.921875 64.515625 
Q 56.59375 54.828125 56.59375 36.375 
Q 56.59375 19.140625 48.40625 8.859375 
Q 40.234375 -1.421875 26.421875 -1.421875 
Q 22.703125 -1.421875 18.890625 -0.6875 
Q 15.09375 0.046875 10.984375 1.515625 
z
M 30.609375 32.421875 
Q 37.25 32.421875 41.125 36.953125 
Q 45.015625 41.5 45.015625 49.421875 
Q 45.015625 57.28125 41.125 61.84375 
Q 37.25 66.40625 30.609375 66.40625 
Q 23.96875 66.40625 20.09375 61.84375 
Q 16.21875 57.28125 16.21875 49.421875 
Q 16.21875 41.5 20.09375 36.953125 
Q 23.96875 32.421875 30.609375 32.421875 
z
" id="DejaVuSans-39"/>
      </defs>
      <g transform="translate(185.811375 237.364563)scale(0.1 -0.1)">
       <use xlink:href="#DejaVuSans-39"/>
      </g>
     </g>
    </g>
    <g id="xtick_7">
     <g id="line2d_13">
      <path clip-path="url(#pc1b5682d30)" d="M 212.800625 222.766125 
L 212.800625 22.318125 
" style="fill:none;stroke:#b0b0b0;stroke-linecap:square;stroke-width:0.8;"/>
     </g>
     <g id="line2d_14">
      <g>
       <use style="stroke:#000000;stroke-width:0.8;" x="212.800625" xlink:href="#mef245b19fb" y="222.766125"/>
      </g>
     </g>
     <g id="text_7">
      <!-- 10 -->
      <defs>
       <path d="M 12.40625 8.296875 
L 28.515625 8.296875 
L 28.515625 63.921875 
L 10.984375 60.40625 
L 10.984375 69.390625 
L 28.421875 72.90625 
L 38.28125 72.90625 
L 38.28125 8.296875 
L 54.390625 8.296875 
L 54.390625 0 
L 12.40625 0 
z
" id="DejaVuSans-31"/>
       <path d="M 31.78125 66.40625 
Q 24.171875 66.40625 20.328125 58.90625 
Q 16.5 51.421875 16.5 36.375 
Q 16.5 21.390625 20.328125 13.890625 
Q 24.171875 6.390625 31.78125 6.390625 
Q 39.453125 6.390625 43.28125 13.890625 
Q 47.125 21.390625 47.125 36.375 
Q 47.125 51.421875 43.28125 58.90625 
Q 39.453125 66.40625 31.78125 66.40625 
z
M 31.78125 74.21875 
Q 44.046875 74.21875 50.515625 64.515625 
Q 56.984375 54.828125 56.984375 36.375 
Q 56.984375 17.96875 50.515625 8.265625 
Q 44.046875 -1.421875 31.78125 -1.421875 
Q 19.53125 -1.421875 13.0625 8.265625 
Q 6.59375 17.96875 6.59375 36.375 
Q 6.59375 54.828125 13.0625 64.515625 
Q 19.53125 74.21875 31.78125 74.21875 
z
" id="DejaVuSans-30"/>
      </defs>
      <g transform="translate(206.438125 237.364563)scale(0.1 -0.1)">
       <use xlink:href="#DejaVuSans-31"/>
       <use x="63.623047" xlink:href="#DejaVuSans-30"/>
      </g>
     </g>
    </g>
    <g id="xtick_8">
     <g id="line2d_15">
      <path clip-path="url(#pc1b5682d30)" d="M 236.608625 222.766125 
L 236.608625 22.318125 
" style="fill:none;stroke:#b0b0b0;stroke-linecap:square;stroke-width:0.8;"/>
     </g>
     <g id="line2d_16">
      <g>
       <use style="stroke:#000000;stroke-width:0.8;" x="236.608625" xlink:href="#mef245b19fb" y="222.766125"/>
      </g>
     </g>
     <g id="text_8">
      <!-- 11 -->
      <g transform="translate(230.246125 237.364563)scale(0.1 -0.1)">
       <use xlink:href="#DejaVuSans-31"/>
       <use x="63.623047" xlink:href="#DejaVuSans-31"/>
      </g>
     </g>
    </g>
    <g id="xtick_9">
     <g id="line2d_17">
      <path clip-path="url(#pc1b5682d30)" d="M 260.416625 222.766125 
L 260.416625 22.318125 
" style="fill:none;stroke:#b0b0b0;stroke-linecap:square;stroke-width:0.8;"/>
     </g>
     <g id="line2d_18">
      <g>
       <use style="stroke:#000000;stroke-width:0.8;" x="260.416625" xlink:href="#mef245b19fb" y="222.766125"/>
      </g>
     </g>
     <g id="text_9">
      <!-- 12 -->
      <defs>
       <path d="M 19.1875 8.296875 
L 53.609375 8.296875 
L 53.609375 0 
L 7.328125 0 
L 7.328125 8.296875 
Q 12.9375 14.109375 22.625 23.890625 
Q 32.328125 33.6875 34.8125 36.53125 
Q 39.546875 41.84375 41.421875 45.53125 
Q 43.3125 49.21875 43.3125 52.78125 
Q 43.3125 58.59375 39.234375 62.25 
Q 35.15625 65.921875 28.609375 65.921875 
Q 23.96875 65.921875 18.8125 64.3125 
Q 13.671875 62.703125 7.8125 59.421875 
L 7.8125 69.390625 
Q 13.765625 71.78125 18.9375 73 
Q 24.125 74.21875 28.421875 74.21875 
Q 39.75 74.21875 46.484375 68.546875 
Q 53.21875 62.890625 53.21875 53.421875 
Q 53.21875 48.921875 51.53125 44.890625 
Q 49.859375 40.875 45.40625 35.40625 
Q 44.1875 33.984375 37.640625 27.21875 
Q 31.109375 20.453125 19.1875 8.296875 
z
" id="DejaVuSans-32"/>
      </defs>
      <g transform="translate(254.054125 237.364563)scale(0.1 -0.1)">
       <use xlink:href="#DejaVuSans-31"/>
       <use x="63.623047" xlink:href="#DejaVuSans-32"/>
      </g>
     </g>
    </g>
    <g id="xtick_10">
     <g id="line2d_19">
      <path clip-path="url(#pc1b5682d30)" d="M 284.224625 222.766125 
L 284.224625 22.318125 
" style="fill:none;stroke:#b0b0b0;stroke-linecap:square;stroke-width:0.8;"/>
     </g>
     <g id="line2d_20">
      <g>
       <use style="stroke:#000000;stroke-width:0.8;" x="284.224625" xlink:href="#mef245b19fb" y="222.766125"/>
      </g>
     </g>
     <g id="text_10">
      <!-- 13 -->
      <defs>
       <path d="M 40.578125 39.3125 
Q 47.65625 37.796875 51.625 33 
Q 55.609375 28.21875 55.609375 21.1875 
Q 55.609375 10.40625 48.1875 4.484375 
Q 40.765625 -1.421875 27.09375 -1.421875 
Q 22.515625 -1.421875 17.65625 -0.515625 
Q 12.796875 0.390625 7.625 2.203125 
L 7.625 11.71875 
Q 11.71875 9.328125 16.59375 8.109375 
Q 21.484375 6.890625 26.8125 6.890625 
Q 36.078125 6.890625 40.9375 10.546875 
Q 45.796875 14.203125 45.796875 21.1875 
Q 45.796875 27.640625 41.28125 31.265625 
Q 36.765625 34.90625 28.71875 34.90625 
L 20.21875 34.90625 
L 20.21875 43.015625 
L 29.109375 43.015625 
Q 36.375 43.015625 40.234375 45.921875 
Q 44.09375 48.828125 44.09375 54.296875 
Q 44.09375 59.90625 40.109375 62.90625 
Q 36.140625 65.921875 28.71875 65.921875 
Q 24.65625 65.921875 20.015625 65.03125 
Q 15.375 64.15625 9.8125 62.3125 
L 9.8125 71.09375 
Q 15.4375 72.65625 20.34375 73.4375 
Q 25.25 74.21875 29.59375 74.21875 
Q 40.828125 74.21875 47.359375 69.109375 
Q 53.90625 64.015625 53.90625 55.328125 
Q 53.90625 49.265625 50.4375 45.09375 
Q 46.96875 40.921875 40.578125 39.3125 
z
" id="DejaVuSans-33"/>
      </defs>
      <g transform="translate(277.862125 237.364563)scale(0.1 -0.1)">
       <use xlink:href="#DejaVuSans-31"/>
       <use x="63.623047" xlink:href="#DejaVuSans-33"/>
      </g>
     </g>
    </g>
    <g id="xtick_11">
     <g id="line2d_21">
      <path clip-path="url(#pc1b5682d30)" d="M 308.032625 222.766125 
L 308.032625 22.318125 
" style="fill:none;stroke:#b0b0b0;stroke-linecap:square;stroke-width:0.8;"/>
     </g>
     <g id="line2d_22">
      <g>
       <use style="stroke:#000000;stroke-width:0.8;" x="308.032625" xlink:href="#mef245b19fb" y="222.766125"/>
      </g>
     </g>
     <g id="text_11">
      <!-- 14 -->
      <g transform="translate(301.670125 237.364563)scale(0.1 -0.1)">
       <use xlink:href="#DejaVuSans-31"/>
       <use x="63.623047" xlink:href="#DejaVuSans-34"/>
      </g>
     </g>
    </g>
    <g id="xtick_12">
     <g id="line2d_23">
      <path clip-path="url(#pc1b5682d30)" d="M 331.840625 222.766125 
L 331.840625 22.318125 
" style="fill:none;stroke:#b0b0b0;stroke-linecap:square;stroke-width:0.8;"/>
     </g>
     <g id="line2d_24">
      <g>
       <use style="stroke:#000000;stroke-width:0.8;" x="331.840625" xlink:href="#mef245b19fb" y="222.766125"/>
      </g>
     </g>
     <g id="text_12">
      <!-- 15 -->
      <g transform="translate(325.478125 237.364563)scale(0.1 -0.1)">
       <use xlink:href="#DejaVuSans-31"/>
       <use x="63.623047" xlink:href="#DejaVuSans-35"/>
      </g>
     </g>
    </g>
    <g id="xtick_13">
     <g id="line2d_25">
      <path clip-path="url(#pc1b5682d30)" d="M 355.648625 222.766125 
L 355.648625 22.318125 
" style="fill:none;stroke:#b0b0b0;stroke-linecap:square;stroke-width:0.8;"/>
     </g>
     <g id="line2d_26">
      <g>
       <use style="stroke:#000000;stroke-width:0.8;" x="355.648625" xlink:href="#mef245b19fb" y="222.766125"/>
      </g>
     </g>
     <g id="text_13">
      <!-- 16 -->
      <g transform="translate(349.286125 237.364563)scale(0.1 -0.1)">
       <use xlink:href="#DejaVuSans-31"/>
       <use x="63.623047" xlink:href="#DejaVuSans-36"/>
      </g>
     </g>
    </g>
    <g id="text_14">
     <!-- Number of Clusters -->
     <defs>
      <path d="M 9.8125 72.90625 
L 23.09375 72.90625 
L 55.421875 11.921875 
L 55.421875 72.90625 
L 64.984375 72.90625 
L 64.984375 0 
L 51.703125 0 
L 19.390625 60.984375 
L 19.390625 0 
L 9.8125 0 
z
" id="DejaVuSans-4e"/>
      <path d="M 8.5 21.578125 
L 8.5 54.6875 
L 17.484375 54.6875 
L 17.484375 21.921875 
Q 17.484375 14.15625 20.5 10.265625 
Q 23.53125 6.390625 29.59375 6.390625 
Q 36.859375 6.390625 41.078125 11.03125 
Q 45.3125 15.671875 45.3125 23.6875 
L 45.3125 54.6875 
L 54.296875 54.6875 
L 54.296875 0 
L 45.3125 0 
L 45.3125 8.40625 
Q 42.046875 3.421875 37.71875 1 
Q 33.40625 -1.421875 27.6875 -1.421875 
Q 18.265625 -1.421875 13.375 4.4375 
Q 8.5 10.296875 8.5 21.578125 
z
M 31.109375 56 
z
" id="DejaVuSans-75"/>
      <path d="M 52 44.1875 
Q 55.375 50.25 60.0625 53.125 
Q 64.75 56 71.09375 56 
Q 79.640625 56 84.28125 50.015625 
Q 88.921875 44.046875 88.921875 33.015625 
L 88.921875 0 
L 79.890625 0 
L 79.890625 32.71875 
Q 79.890625 40.578125 77.09375 44.375 
Q 74.3125 48.1875 68.609375 48.1875 
Q 61.625 48.1875 57.5625 43.546875 
Q 53.515625 38.921875 53.515625 30.90625 
L 53.515625 0 
L 44.484375 0 
L 44.484375 32.71875 
Q 44.484375 40.625 41.703125 44.40625 
Q 38.921875 48.1875 33.109375 48.1875 
Q 26.21875 48.1875 22.15625 43.53125 
Q 18.109375 38.875 18.109375 30.90625 
L 18.109375 0 
L 9.078125 0 
L 9.078125 54.6875 
L 18.109375 54.6875 
L 18.109375 46.1875 
Q 21.1875 51.21875 25.484375 53.609375 
Q 29.78125 56 35.6875 56 
Q 41.65625 56 45.828125 52.96875 
Q 50 49.953125 52 44.1875 
z
" id="DejaVuSans-6d"/>
      <path d="M 48.6875 27.296875 
Q 48.6875 37.203125 44.609375 42.84375 
Q 40.53125 48.484375 33.40625 48.484375 
Q 26.265625 48.484375 22.1875 42.84375 
Q 18.109375 37.203125 18.109375 27.296875 
Q 18.109375 17.390625 22.1875 11.75 
Q 26.265625 6.109375 33.40625 6.109375 
Q 40.53125 6.109375 44.609375 11.75 
Q 48.6875 17.390625 48.6875 27.296875 
z
M 18.109375 46.390625 
Q 20.953125 51.265625 25.265625 53.625 
Q 29.59375 56 35.59375 56 
Q 45.5625 56 51.78125 48.09375 
Q 58.015625 40.1875 58.015625 27.296875 
Q 58.015625 14.40625 51.78125 6.484375 
Q 45.5625 -1.421875 35.59375 -1.421875 
Q 29.59375 -1.421875 25.265625 0.953125 
Q 20.953125 3.328125 18.109375 8.203125 
L 18.109375 0 
L 9.078125 0 
L 9.078125 75.984375 
L 18.109375 75.984375 
z
" id="DejaVuSans-62"/>
      <path d="M 56.203125 29.59375 
L 56.203125 25.203125 
L 14.890625 25.203125 
Q 15.484375 15.921875 20.484375 11.0625 
Q 25.484375 6.203125 34.421875 6.203125 
Q 39.59375 6.203125 44.453125 7.46875 
Q 49.3125 8.734375 54.109375 11.28125 
L 54.109375 2.78125 
Q 49.265625 0.734375 44.1875 -0.34375 
Q 39.109375 -1.421875 33.890625 -1.421875 
Q 20.796875 -1.421875 13.15625 6.1875 
Q 5.515625 13.8125 5.515625 26.8125 
Q 5.515625 40.234375 12.765625 48.109375 
Q 20.015625 56 32.328125 56 
Q 43.359375 56 49.78125 48.890625 
Q 56.203125 41.796875 56.203125 29.59375 
z
M 47.21875 32.234375 
Q 47.125 39.59375 43.09375 43.984375 
Q 39.0625 48.390625 32.421875 48.390625 
Q 24.90625 48.390625 20.390625 44.140625 
Q 15.875 39.890625 15.1875 32.171875 
z
" id="DejaVuSans-65"/>
      <path d="M 41.109375 46.296875 
Q 39.59375 47.171875 37.8125 47.578125 
Q 36.03125 48 33.890625 48 
Q 26.265625 48 22.1875 43.046875 
Q 18.109375 38.09375 18.109375 28.8125 
L 18.109375 0 
L 9.078125 0 
L 9.078125 54.6875 
L 18.109375 54.6875 
L 18.109375 46.1875 
Q 20.953125 51.171875 25.484375 53.578125 
Q 30.03125 56 36.53125 56 
Q 37.453125 56 38.578125 55.875 
Q 39.703125 55.765625 41.0625 55.515625 
z
" id="DejaVuSans-72"/>
      <path id="DejaVuSans-20"/>
      <path d="M 30.609375 48.390625 
Q 23.390625 48.390625 19.1875 42.75 
Q 14.984375 37.109375 14.984375 27.296875 
Q 14.984375 17.484375 19.15625 11.84375 
Q 23.34375 6.203125 30.609375 6.203125 
Q 37.796875 6.203125 41.984375 11.859375 
Q 46.1875 17.53125 46.1875 27.296875 
Q 46.1875 37.015625 41.984375 42.703125 
Q 37.796875 48.390625 30.609375 48.390625 
z
M 30.609375 56 
Q 42.328125 56 49.015625 48.375 
Q 55.71875 40.765625 55.71875 27.296875 
Q 55.71875 13.875 49.015625 6.21875 
Q 42.328125 -1.421875 30.609375 -1.421875 
Q 18.84375 -1.421875 12.171875 6.21875 
Q 5.515625 13.875 5.515625 27.296875 
Q 5.515625 40.765625 12.171875 48.375 
Q 18.84375 56 30.609375 56 
z
" id="DejaVuSans-6f"/>
      <path d="M 37.109375 75.984375 
L 37.109375 68.5 
L 28.515625 68.5 
Q 23.6875 68.5 21.796875 66.546875 
Q 19.921875 64.59375 19.921875 59.515625 
L 19.921875 54.6875 
L 34.71875 54.6875 
L 34.71875 47.703125 
L 19.921875 47.703125 
L 19.921875 0 
L 10.890625 0 
L 10.890625 47.703125 
L 2.296875 47.703125 
L 2.296875 54.6875 
L 10.890625 54.6875 
L 10.890625 58.5 
Q 10.890625 67.625 15.140625 71.796875 
Q 19.390625 75.984375 28.609375 75.984375 
z
" id="DejaVuSans-66"/>
      <path d="M 64.40625 67.28125 
L 64.40625 56.890625 
Q 59.421875 61.53125 53.78125 63.8125 
Q 48.140625 66.109375 41.796875 66.109375 
Q 29.296875 66.109375 22.65625 58.46875 
Q 16.015625 50.828125 16.015625 36.375 
Q 16.015625 21.96875 22.65625 14.328125 
Q 29.296875 6.6875 41.796875 6.6875 
Q 48.140625 6.6875 53.78125 8.984375 
Q 59.421875 11.28125 64.40625 15.921875 
L 64.40625 5.609375 
Q 59.234375 2.09375 53.4375 0.328125 
Q 47.65625 -1.421875 41.21875 -1.421875 
Q 24.65625 -1.421875 15.125 8.703125 
Q 5.609375 18.84375 5.609375 36.375 
Q 5.609375 53.953125 15.125 64.078125 
Q 24.65625 74.21875 41.21875 74.21875 
Q 47.75 74.21875 53.53125 72.484375 
Q 59.328125 70.75 64.40625 67.28125 
z
" id="DejaVuSans-43"/>
      <path d="M 9.421875 75.984375 
L 18.40625 75.984375 
L 18.40625 0 
L 9.421875 0 
z
" id="DejaVuSans-6c"/>
      <path d="M 44.28125 53.078125 
L 44.28125 44.578125 
Q 40.484375 46.53125 36.375 47.5 
Q 32.28125 48.484375 27.875 48.484375 
Q 21.1875 48.484375 17.84375 46.4375 
Q 14.5 44.390625 14.5 40.28125 
Q 14.5 37.15625 16.890625 35.375 
Q 19.28125 33.59375 26.515625 31.984375 
L 29.59375 31.296875 
Q 39.15625 29.25 43.1875 25.515625 
Q 47.21875 21.78125 47.21875 15.09375 
Q 47.21875 7.46875 41.1875 3.015625 
Q 35.15625 -1.421875 24.609375 -1.421875 
Q 20.21875 -1.421875 15.453125 -0.5625 
Q 10.6875 0.296875 5.421875 2 
L 5.421875 11.28125 
Q 10.40625 8.6875 15.234375 7.390625 
Q 20.0625 6.109375 24.8125 6.109375 
Q 31.15625 6.109375 34.5625 8.28125 
Q 37.984375 10.453125 37.984375 14.40625 
Q 37.984375 18.0625 35.515625 20.015625 
Q 33.0625 21.96875 24.703125 23.78125 
L 21.578125 24.515625 
Q 13.234375 26.265625 9.515625 29.90625 
Q 5.8125 33.546875 5.8125 39.890625 
Q 5.8125 47.609375 11.28125 51.796875 
Q 16.75 56 26.8125 56 
Q 31.78125 56 36.171875 55.265625 
Q 40.578125 54.546875 44.28125 53.078125 
z
" id="DejaVuSans-73"/>
      <path d="M 18.3125 70.21875 
L 18.3125 54.6875 
L 36.8125 54.6875 
L 36.8125 47.703125 
L 18.3125 47.703125 
L 18.3125 18.015625 
Q 18.3125 11.328125 20.140625 9.421875 
Q 21.96875 7.515625 27.59375 7.515625 
L 36.8125 7.515625 
L 36.8125 0 
L 27.59375 0 
Q 17.1875 0 13.234375 3.875 
Q 9.28125 7.765625 9.28125 18.015625 
L 9.28125 47.703125 
L 2.6875 47.703125 
L 2.6875 54.6875 
L 9.28125 54.6875 
L 9.28125 70.21875 
z
" id="DejaVuSans-74"/>
     </defs>
     <g transform="translate(164.36625 251.042688)scale(0.1 -0.1)">
      <use xlink:href="#DejaVuSans-4e"/>
      <use x="74.804688" xlink:href="#DejaVuSans-75"/>
      <use x="138.183594" xlink:href="#DejaVuSans-6d"/>
      <use x="235.595703" xlink:href="#DejaVuSans-62"/>
      <use x="299.072266" xlink:href="#DejaVuSans-65"/>
      <use x="360.595703" xlink:href="#DejaVuSans-72"/>
      <use x="401.708984" xlink:href="#DejaVuSans-20"/>
      <use x="433.496094" xlink:href="#DejaVuSans-6f"/>
      <use x="494.677734" xlink:href="#DejaVuSans-66"/>
      <use x="529.882812" xlink:href="#DejaVuSans-20"/>
      <use x="561.669922" xlink:href="#DejaVuSans-43"/>
      <use x="631.494141" xlink:href="#DejaVuSans-6c"/>
      <use x="659.277344" xlink:href="#DejaVuSans-75"/>
      <use x="722.65625" xlink:href="#DejaVuSans-73"/>
      <use x="774.755859" xlink:href="#DejaVuSans-74"/>
      <use x="813.964844" xlink:href="#DejaVuSans-65"/>
      <use x="875.488281" xlink:href="#DejaVuSans-72"/>
      <use x="916.601562" xlink:href="#DejaVuSans-73"/>
     </g>
    </g>
   </g>
   <g id="matplotlib.axis_2">
    <g id="ytick_1">
     <g id="line2d_27">
      <path clip-path="url(#pc1b5682d30)" d="M 34.240625 222.766125 
L 391.360625 222.766125 
" style="fill:none;stroke:#b0b0b0;stroke-linecap:square;stroke-width:0.8;"/>
     </g>
     <g id="line2d_28">
      <defs>
       <path d="M 0 0 
L -3.5 0 
" id="m275176d6be" style="stroke:#000000;stroke-width:0.8;"/>
      </defs>
      <g>
       <use style="stroke:#000000;stroke-width:0.8;" x="34.240625" xlink:href="#m275176d6be" y="222.766125"/>
      </g>
     </g>
     <g id="text_15">
      <!-- 0 -->
      <g transform="translate(20.878125 226.565344)scale(0.1 -0.1)">
       <use xlink:href="#DejaVuSans-30"/>
      </g>
     </g>
    </g>
    <g id="ytick_2">
     <g id="line2d_29">
      <path clip-path="url(#pc1b5682d30)" d="M 34.240625 197.070404 
L 391.360625 197.070404 
" style="fill:none;stroke:#b0b0b0;stroke-linecap:square;stroke-width:0.8;"/>
     </g>
     <g id="line2d_30">
      <g>
       <use style="stroke:#000000;stroke-width:0.8;" x="34.240625" xlink:href="#m275176d6be" y="197.070404"/>
      </g>
     </g>
     <g id="text_16">
      <!-- 1 -->
      <g transform="translate(20.878125 200.869623)scale(0.1 -0.1)">
       <use xlink:href="#DejaVuSans-31"/>
      </g>
     </g>
    </g>
    <g id="ytick_3">
     <g id="line2d_31">
      <path clip-path="url(#pc1b5682d30)" d="M 34.240625 171.374684 
L 391.360625 171.374684 
" style="fill:none;stroke:#b0b0b0;stroke-linecap:square;stroke-width:0.8;"/>
     </g>
     <g id="line2d_32">
      <g>
       <use style="stroke:#000000;stroke-width:0.8;" x="34.240625" xlink:href="#m275176d6be" y="171.374684"/>
      </g>
     </g>
     <g id="text_17">
      <!-- 2 -->
      <g transform="translate(20.878125 175.173902)scale(0.1 -0.1)">
       <use xlink:href="#DejaVuSans-32"/>
      </g>
     </g>
    </g>
    <g id="ytick_4">
     <g id="line2d_33">
      <path clip-path="url(#pc1b5682d30)" d="M 34.240625 145.678963 
L 391.360625 145.678963 
" style="fill:none;stroke:#b0b0b0;stroke-linecap:square;stroke-width:0.8;"/>
     </g>
     <g id="line2d_34">
      <g>
       <use style="stroke:#000000;stroke-width:0.8;" x="34.240625" xlink:href="#m275176d6be" y="145.678963"/>
      </g>
     </g>
     <g id="text_18">
      <!-- 3 -->
      <g transform="translate(20.878125 149.478182)scale(0.1 -0.1)">
       <use xlink:href="#DejaVuSans-33"/>
      </g>
     </g>
    </g>
    <g id="ytick_5">
     <g id="line2d_35">
      <path clip-path="url(#pc1b5682d30)" d="M 34.240625 119.983242 
L 391.360625 119.983242 
" style="fill:none;stroke:#b0b0b0;stroke-linecap:square;stroke-width:0.8;"/>
     </g>
     <g id="line2d_36">
      <g>
       <use style="stroke:#000000;stroke-width:0.8;" x="34.240625" xlink:href="#m275176d6be" y="119.983242"/>
      </g>
     </g>
     <g id="text_19">
      <!-- 4 -->
      <g transform="translate(20.878125 123.782461)scale(0.1 -0.1)">
       <use xlink:href="#DejaVuSans-34"/>
      </g>
     </g>
    </g>
    <g id="ytick_6">
     <g id="line2d_37">
      <path clip-path="url(#pc1b5682d30)" d="M 34.240625 94.287522 
L 391.360625 94.287522 
" style="fill:none;stroke:#b0b0b0;stroke-linecap:square;stroke-width:0.8;"/>
     </g>
     <g id="line2d_38">
      <g>
       <use style="stroke:#000000;stroke-width:0.8;" x="34.240625" xlink:href="#m275176d6be" y="94.287522"/>
      </g>
     </g>
     <g id="text_20">
      <!-- 5 -->
      <g transform="translate(20.878125 98.08674)scale(0.1 -0.1)">
       <use xlink:href="#DejaVuSans-35"/>
      </g>
     </g>
    </g>
    <g id="ytick_7">
     <g id="line2d_39">
      <path clip-path="url(#pc1b5682d30)" d="M 34.240625 68.591801 
L 391.360625 68.591801 
" style="fill:none;stroke:#b0b0b0;stroke-linecap:square;stroke-width:0.8;"/>
     </g>
     <g id="line2d_40">
      <g>
       <use style="stroke:#000000;stroke-width:0.8;" x="34.240625" xlink:href="#m275176d6be" y="68.591801"/>
      </g>
     </g>
     <g id="text_21">
      <!-- 6 -->
      <g transform="translate(20.878125 72.39102)scale(0.1 -0.1)">
       <use xlink:href="#DejaVuSans-36"/>
      </g>
     </g>
    </g>
    <g id="ytick_8">
     <g id="line2d_41">
      <path clip-path="url(#pc1b5682d30)" d="M 34.240625 42.89608 
L 391.360625 42.89608 
" style="fill:none;stroke:#b0b0b0;stroke-linecap:square;stroke-width:0.8;"/>
     </g>
     <g id="line2d_42">
      <g>
       <use style="stroke:#000000;stroke-width:0.8;" x="34.240625" xlink:href="#m275176d6be" y="42.89608"/>
      </g>
     </g>
     <g id="text_22">
      <!-- 7 -->
      <g transform="translate(20.878125 46.695299)scale(0.1 -0.1)">
       <use xlink:href="#DejaVuSans-37"/>
      </g>
     </g>
    </g>
    <g id="text_23">
     <!-- Speedup -->
     <defs>
      <path d="M 53.515625 70.515625 
L 53.515625 60.890625 
Q 47.90625 63.578125 42.921875 64.890625 
Q 37.9375 66.21875 33.296875 66.21875 
Q 25.25 66.21875 20.875 63.09375 
Q 16.5 59.96875 16.5 54.203125 
Q 16.5 49.359375 19.40625 46.890625 
Q 22.3125 44.4375 30.421875 42.921875 
L 36.375 41.703125 
Q 47.40625 39.59375 52.65625 34.296875 
Q 57.90625 29 57.90625 20.125 
Q 57.90625 9.515625 50.796875 4.046875 
Q 43.703125 -1.421875 29.984375 -1.421875 
Q 24.8125 -1.421875 18.96875 -0.25 
Q 13.140625 0.921875 6.890625 3.21875 
L 6.890625 13.375 
Q 12.890625 10.015625 18.65625 8.296875 
Q 24.421875 6.59375 29.984375 6.59375 
Q 38.421875 6.59375 43.015625 9.90625 
Q 47.609375 13.234375 47.609375 19.390625 
Q 47.609375 24.75 44.3125 27.78125 
Q 41.015625 30.8125 33.5 32.328125 
L 27.484375 33.5 
Q 16.453125 35.6875 11.515625 40.375 
Q 6.59375 45.0625 6.59375 53.421875 
Q 6.59375 63.09375 13.40625 68.65625 
Q 20.21875 74.21875 32.171875 74.21875 
Q 37.3125 74.21875 42.625 73.28125 
Q 47.953125 72.359375 53.515625 70.515625 
z
" id="DejaVuSans-53"/>
      <path d="M 18.109375 8.203125 
L 18.109375 -20.796875 
L 9.078125 -20.796875 
L 9.078125 54.6875 
L 18.109375 54.6875 
L 18.109375 46.390625 
Q 20.953125 51.265625 25.265625 53.625 
Q 29.59375 56 35.59375 56 
Q 45.5625 56 51.78125 48.09375 
Q 58.015625 40.1875 58.015625 27.296875 
Q 58.015625 14.40625 51.78125 6.484375 
Q 45.5625 -1.421875 35.59375 -1.421875 
Q 29.59375 -1.421875 25.265625 0.953125 
Q 20.953125 3.328125 18.109375 8.203125 
z
M 48.6875 27.296875 
Q 48.6875 37.203125 44.609375 42.84375 
Q 40.53125 48.484375 33.40625 48.484375 
Q 26.265625 48.484375 22.1875 42.84375 
Q 18.109375 37.203125 18.109375 27.296875 
Q 18.109375 17.390625 22.1875 11.75 
Q 26.265625 6.109375 33.40625 6.109375 
Q 40.53125 6.109375 44.609375 11.75 
Q 48.6875 17.390625 48.6875 27.296875 
z
" id="DejaVuSans-70"/>
      <path d="M 45.40625 46.390625 
L 45.40625 75.984375 
L 54.390625 75.984375 
L 54.390625 0 
L 45.40625 0 
L 45.40625 8.203125 
Q 42.578125 3.328125 38.25 0.953125 
Q 33.9375 -1.421875 27.875 -1.421875 
Q 17.96875 -1.421875 11.734375 6.484375 
Q 5.515625 14.40625 5.515625 27.296875 
Q 5.515625 40.1875 11.734375 48.09375 
Q 17.96875 56 27.875 56 
Q 33.9375 56 38.25 53.625 
Q 42.578125 51.265625 45.40625 46.390625 
z
M 14.796875 27.296875 
Q 14.796875 17.390625 18.875 11.75 
Q 22.953125 6.109375 30.078125 6.109375 
Q 37.203125 6.109375 41.296875 11.75 
Q 45.40625 17.390625 45.40625 27.296875 
Q 45.40625 37.203125 41.296875 42.84375 
Q 37.203125 48.484375 30.078125 48.484375 
Q 22.953125 48.484375 18.875 42.84375 
Q 14.796875 37.203125 14.796875 27.296875 
z
" id="DejaVuSans-64"/>
     </defs>
     <g transform="translate(14.798438 144.560875)rotate(-90)scale(0.1 -0.1)">
      <use xlink:href="#DejaVuSans-53"/>
      <use x="63.476562" xlink:href="#DejaVuSans-70"/>
      <use x="126.953125" xlink:href="#DejaVuSans-65"/>
      <use x="188.476562" xlink:href="#DejaVuSans-65"/>
      <use x="250" xlink:href="#DejaVuSans-64"/>
      <use x="313.476562" xlink:href="#DejaVuSans-75"/>
      <use x="376.855469" xlink:href="#DejaVuSans-70"/>
     </g>
    </g>
   </g>
   <g id="LineCollection_1">
    <path clip-path="url(#pc1b5682d30)" d="M 64.000625 45.799512 
L 67.968625 45.799512 
" style="fill:none;stroke:#000000;stroke-width:1.5;"/>
    <path clip-path="url(#pc1b5682d30)" d="M 87.808625 44.837043 
L 91.776625 44.837043 
" style="fill:none;stroke:#000000;stroke-width:1.5;"/>
    <path clip-path="url(#pc1b5682d30)" d="M 111.616625 44.478481 
L 115.584625 44.478481 
" style="fill:none;stroke:#000000;stroke-width:1.5;"/>
    <path clip-path="url(#pc1b5682d30)" d="M 135.424625 43.704229 
L 139.392625 43.704229 
" style="fill:none;stroke:#000000;stroke-width:1.5;"/>
    <path clip-path="url(#pc1b5682d30)" d="M 159.232625 43.713666 
L 163.200625 43.713666 
" style="fill:none;stroke:#000000;stroke-width:1.5;"/>
    <path clip-path="url(#pc1b5682d30)" d="M 183.040625 43.60537 
L 187.008625 43.60537 
" style="fill:none;stroke:#000000;stroke-width:1.5;"/>
    <path clip-path="url(#pc1b5682d30)" d="M 206.848625 42.887796 
L 210.816625 42.887796 
" style="fill:none;stroke:#000000;stroke-width:1.5;"/>
    <path clip-path="url(#pc1b5682d30)" d="M 230.656625 42.533359 
L 234.624625 42.533359 
" style="fill:none;stroke:#000000;stroke-width:1.5;"/>
    <path clip-path="url(#pc1b5682d30)" d="M 254.464625 41.541543 
L 258.432625 41.541543 
" style="fill:none;stroke:#000000;stroke-width:1.5;"/>
    <path clip-path="url(#pc1b5682d30)" d="M 278.272625 41.725867 
L 282.240625 41.725867 
" style="fill:none;stroke:#000000;stroke-width:1.5;"/>
    <path clip-path="url(#pc1b5682d30)" d="M 302.080625 41.542976 
L 306.048625 41.542976 
" style="fill:none;stroke:#000000;stroke-width:1.5;"/>
    <path clip-path="url(#pc1b5682d30)" d="M 325.888625 41.397659 
L 329.856625 41.397659 
" style="fill:none;stroke:#000000;stroke-width:1.5;"/>
    <path clip-path="url(#pc1b5682d30)" d="M 349.696625 40.54067 
L 353.664625 40.54067 
" style="fill:none;stroke:#000000;stroke-width:1.5;"/>
   </g>
   <g id="LineCollection_2">
    <path clip-path="url(#pc1b5682d30)" d="M 67.968625 56.988701 
L 71.936625 56.988701 
" style="fill:none;stroke:#000000;stroke-width:1.5;"/>
    <path clip-path="url(#pc1b5682d30)" d="M 91.776625 58.948338 
L 95.744625 58.948338 
" style="fill:none;stroke:#000000;stroke-width:1.5;"/>
    <path clip-path="url(#pc1b5682d30)" d="M 115.584625 61.184737 
L 119.552625 61.184737 
" style="fill:none;stroke:#000000;stroke-width:1.5;"/>
    <path clip-path="url(#pc1b5682d30)" d="M 139.392625 61.424628 
L 143.360625 61.424628 
" style="fill:none;stroke:#000000;stroke-width:1.5;"/>
    <path clip-path="url(#pc1b5682d30)" d="M 163.200625 62.391846 
L 167.168625 62.391846 
" style="fill:none;stroke:#000000;stroke-width:1.5;"/>
    <path clip-path="url(#pc1b5682d30)" d="M 187.008625 64.074269 
L 190.976625 64.074269 
" style="fill:none;stroke:#000000;stroke-width:1.5;"/>
    <path clip-path="url(#pc1b5682d30)" d="M 210.816625 62.487084 
L 214.784625 62.487084 
" style="fill:none;stroke:#000000;stroke-width:1.5;"/>
    <path clip-path="url(#pc1b5682d30)" d="M 234.624625 62.414394 
L 238.592625 62.414394 
" style="fill:none;stroke:#000000;stroke-width:1.5;"/>
    <path clip-path="url(#pc1b5682d30)" d="M 258.432625 61.51834 
L 262.400625 61.51834 
" style="fill:none;stroke:#000000;stroke-width:1.5;"/>
    <path clip-path="url(#pc1b5682d30)" d="M 282.240625 60.698184 
L 286.208625 60.698184 
" style="fill:none;stroke:#000000;stroke-width:1.5;"/>
    <path clip-path="url(#pc1b5682d30)" d="M 306.048625 60.078714 
L 310.016625 60.078714 
" style="fill:none;stroke:#000000;stroke-width:1.5;"/>
    <path clip-path="url(#pc1b5682d30)" d="M 329.856625 60.356823 
L 333.824625 60.356823 
" style="fill:none;stroke:#000000;stroke-width:1.5;"/>
    <path clip-path="url(#pc1b5682d30)" d="M 353.664625 59.922881 
L 357.632625 59.922881 
" style="fill:none;stroke:#000000;stroke-width:1.5;"/>
   </g>
   <g id="LineCollection_3">
    <path clip-path="url(#pc1b5682d30)" d="M 71.936625 58.781004 
L 75.904625 58.781004 
" style="fill:none;stroke:#000000;stroke-width:1.5;"/>
    <path clip-path="url(#pc1b5682d30)" d="M 95.744625 65.154116 
L 99.712625 65.154116 
" style="fill:none;stroke:#000000;stroke-width:1.5;"/>
    <path clip-path="url(#pc1b5682d30)" d="M 119.552625 65.291169 
L 123.520625 65.291169 
" style="fill:none;stroke:#000000;stroke-width:1.5;"/>
    <path clip-path="url(#pc1b5682d30)" d="M 143.360625 65.955661 
L 147.328625 65.955661 
" style="fill:none;stroke:#000000;stroke-width:1.5;"/>
    <path clip-path="url(#pc1b5682d30)" d="M 167.168625 71.809606 
L 171.136625 71.809606 
" style="fill:none;stroke:#000000;stroke-width:1.5;"/>
    <path clip-path="url(#pc1b5682d30)" d="M 190.976625 68.943656 
L 194.944625 68.943656 
" style="fill:none;stroke:#000000;stroke-width:1.5;"/>
    <path clip-path="url(#pc1b5682d30)" d="M 214.784625 68.134522 
L 218.752625 68.134522 
" style="fill:none;stroke:#000000;stroke-width:1.5;"/>
    <path clip-path="url(#pc1b5682d30)" d="M 238.592625 67.750007 
L 242.560625 67.750007 
" style="fill:none;stroke:#000000;stroke-width:1.5;"/>
    <path clip-path="url(#pc1b5682d30)" d="M 262.400625 70.36728 
L 266.368625 70.36728 
" style="fill:none;stroke:#000000;stroke-width:1.5;"/>
    <path clip-path="url(#pc1b5682d30)" d="M 286.208625 70.971314 
L 290.176625 70.971314 
" style="fill:none;stroke:#000000;stroke-width:1.5;"/>
    <path clip-path="url(#pc1b5682d30)" d="M 310.016625 70.891213 
L 313.984625 70.891213 
" style="fill:none;stroke:#000000;stroke-width:1.5;"/>
    <path clip-path="url(#pc1b5682d30)" d="M 333.824625 73.497878 
L 337.792625 73.497878 
" style="fill:none;stroke:#000000;stroke-width:1.5;"/>
    <path clip-path="url(#pc1b5682d30)" d="M 357.632625 72.670666 
L 361.600625 72.670666 
" style="fill:none;stroke:#000000;stroke-width:1.5;"/>
   </g>
   <g id="patch_3">
    <path d="M 34.240625 222.766125 
L 34.240625 22.318125 
" style="fill:none;stroke:#000000;stroke-linecap:square;stroke-linejoin:miter;stroke-width:0.8;"/>
   </g>
   <g id="patch_4">
    <path d="M 391.360625 222.766125 
L 391.360625 22.318125 
" style="fill:none;stroke:#000000;stroke-linecap:square;stroke-linejoin:miter;stroke-width:0.8;"/>
   </g>
   <g id="patch_5">
    <path d="M 34.240625 222.766125 
L 391.360625 222.766125 
" style="fill:none;stroke:#000000;stroke-linecap:square;stroke-linejoin:miter;stroke-width:0.8;"/>
   </g>
   <g id="patch_6">
    <path d="M 34.240625 22.318125 
L 391.360625 22.318125 
" style="fill:none;stroke:#000000;stroke-linecap:square;stroke-linejoin:miter;stroke-width:0.8;"/>
   </g>
   <g id="patch_7">
    <path clip-path="url(#pc1b5682d30)" d="M 64.000625 222.766125 
L 67.968625 222.766125 
L 67.968625 160.883077 
L 64.000625 160.883077 
z
" style="fill:#1f77b4;"/>
   </g>
   <g id="patch_8">
    <path clip-path="url(#pc1b5682d30)" d="M 87.808625 222.766125 
L 91.776625 222.766125 
L 91.776625 177.112088 
L 87.808625 177.112088 
z
" style="fill:#1f77b4;"/>
   </g>
   <g id="patch_9">
    <path clip-path="url(#pc1b5682d30)" d="M 111.616625 222.766125 
L 115.584625 222.766125 
L 115.584625 171.489928 
L 111.616625 171.489928 
z
" style="fill:#1f77b4;"/>
   </g>
   <g id="patch_10">
    <path clip-path="url(#pc1b5682d30)" d="M 135.424625 222.766125 
L 139.392625 222.766125 
L 139.392625 171.078128 
L 135.424625 171.078128 
z
" style="fill:#1f77b4;"/>
   </g>
   <g id="patch_11">
    <path clip-path="url(#pc1b5682d30)" d="M 159.232625 222.766125 
L 163.200625 222.766125 
L 163.200625 168.299081 
L 159.232625 168.299081 
z
" style="fill:#1f77b4;"/>
   </g>
   <g id="patch_12">
    <path clip-path="url(#pc1b5682d30)" d="M 183.040625 222.766125 
L 187.008625 222.766125 
L 187.008625 168.277648 
L 183.040625 168.277648 
z
" style="fill:#1f77b4;"/>
   </g>
   <g id="patch_13">
    <path clip-path="url(#pc1b5682d30)" d="M 206.848625 222.766125 
L 210.816625 222.766125 
L 210.816625 164.864132 
L 206.848625 164.864132 
z
" style="fill:#1f77b4;"/>
   </g>
   <g id="patch_14">
    <path clip-path="url(#pc1b5682d30)" d="M 230.656625 222.766125 
L 234.624625 222.766125 
L 234.624625 163.131092 
L 230.656625 163.131092 
z
" style="fill:#1f77b4;"/>
   </g>
   <g id="patch_15">
    <path clip-path="url(#pc1b5682d30)" d="M 254.464625 222.766125 
L 258.432625 222.766125 
L 258.432625 165.835116 
L 254.464625 165.835116 
z
" style="fill:#1f77b4;"/>
   </g>
   <g id="patch_16">
    <path clip-path="url(#pc1b5682d30)" d="M 278.272625 222.766125 
L 282.240625 222.766125 
L 282.240625 162.25413 
L 278.272625 162.25413 
z
" style="fill:#1f77b4;"/>
   </g>
   <g id="patch_17">
    <path clip-path="url(#pc1b5682d30)" d="M 302.080625 222.766125 
L 306.048625 222.766125 
L 306.048625 163.881015 
L 302.080625 163.881015 
z
" style="fill:#1f77b4;"/>
   </g>
   <g id="patch_18">
    <path clip-path="url(#pc1b5682d30)" d="M 325.888625 222.766125 
L 329.856625 222.766125 
L 329.856625 163.696433 
L 325.888625 163.696433 
z
" style="fill:#1f77b4;"/>
   </g>
   <g id="patch_19">
    <path clip-path="url(#pc1b5682d30)" d="M 349.696625 222.766125 
L 353.664625 222.766125 
L 353.664625 162.133953 
L 349.696625 162.133953 
z
" style="fill:#1f77b4;"/>
   </g>
   <g id="patch_20">
    <path clip-path="url(#pc1b5682d30)" d="M 64.000625 222.766125 
L 67.968625 222.766125 
L 67.968625 181.426336 
L 64.000625 181.426336 
z
" style="fill:#ff7f0e;"/>
   </g>
   <g id="patch_21">
    <path clip-path="url(#pc1b5682d30)" d="M 87.808625 222.766125 
L 91.776625 222.766125 
L 91.776625 190.188833 
L 87.808625 190.188833 
z
" style="fill:#ff7f0e;"/>
   </g>
   <g id="patch_22">
    <path clip-path="url(#pc1b5682d30)" d="M 111.616625 222.766125 
L 115.584625 222.766125 
L 115.584625 188.088979 
L 111.616625 188.088979 
z
" style="fill:#ff7f0e;"/>
   </g>
   <g id="patch_23">
    <path clip-path="url(#pc1b5682d30)" d="M 135.424625 222.766125 
L 139.392625 222.766125 
L 139.392625 190.107378 
L 135.424625 190.107378 
z
" style="fill:#ff7f0e;"/>
   </g>
   <g id="patch_24">
    <path clip-path="url(#pc1b5682d30)" d="M 159.232625 222.766125 
L 163.200625 222.766125 
L 163.200625 187.797076 
L 159.232625 187.797076 
z
" style="fill:#ff7f0e;"/>
   </g>
   <g id="patch_25">
    <path clip-path="url(#pc1b5682d30)" d="M 183.040625 222.766125 
L 187.008625 222.766125 
L 187.008625 186.23272 
L 183.040625 186.23272 
z
" style="fill:#ff7f0e;"/>
   </g>
   <g id="patch_26">
    <path clip-path="url(#pc1b5682d30)" d="M 206.848625 222.766125 
L 210.816625 222.766125 
L 210.816625 183.86486 
L 206.848625 183.86486 
z
" style="fill:#ff7f0e;"/>
   </g>
   <g id="patch_27">
    <path clip-path="url(#pc1b5682d30)" d="M 230.656625 222.766125 
L 234.624625 222.766125 
L 234.624625 181.006982 
L 230.656625 181.006982 
z
" style="fill:#ff7f0e;"/>
   </g>
   <g id="patch_28">
    <path clip-path="url(#pc1b5682d30)" d="M 254.464625 222.766125 
L 258.432625 222.766125 
L 258.432625 181.054519 
L 254.464625 181.054519 
z
" style="fill:#ff7f0e;"/>
   </g>
   <g id="patch_29">
    <path clip-path="url(#pc1b5682d30)" d="M 278.272625 222.766125 
L 282.240625 222.766125 
L 282.240625 178.758349 
L 278.272625 178.758349 
z
" style="fill:#ff7f0e;"/>
   </g>
   <g id="patch_30">
    <path clip-path="url(#pc1b5682d30)" d="M 302.080625 222.766125 
L 306.048625 222.766125 
L 306.048625 179.148667 
L 302.080625 179.148667 
z
" style="fill:#ff7f0e;"/>
   </g>
   <g id="patch_31">
    <path clip-path="url(#pc1b5682d30)" d="M 325.888625 222.766125 
L 329.856625 222.766125 
L 329.856625 179.066184 
L 325.888625 179.066184 
z
" style="fill:#ff7f0e;"/>
   </g>
   <g id="patch_32">
    <path clip-path="url(#pc1b5682d30)" d="M 349.696625 222.766125 
L 353.664625 222.766125 
L 353.664625 177.097378 
L 349.696625 177.097378 
z
" style="fill:#ff7f0e;"/>
   </g>
   <g id="patch_33">
    <path clip-path="url(#pc1b5682d30)" d="M 67.968625 222.766125 
L 71.936625 222.766125 
L 71.936625 151.045985 
L 67.968625 151.045985 
z
" style="fill:#2ca02c;"/>
   </g>
   <g id="patch_34">
    <path clip-path="url(#pc1b5682d30)" d="M 91.776625 222.766125 
L 95.744625 222.766125 
L 95.744625 177.819015 
L 91.776625 177.819015 
z
" style="fill:#2ca02c;"/>
   </g>
   <g id="patch_35">
    <path clip-path="url(#pc1b5682d30)" d="M 115.584625 222.766125 
L 119.552625 222.766125 
L 119.552625 174.425031 
L 115.584625 174.425031 
z
" style="fill:#2ca02c;"/>
   </g>
   <g id="patch_36">
    <path clip-path="url(#pc1b5682d30)" d="M 139.392625 222.766125 
L 143.360625 222.766125 
L 143.360625 172.995268 
L 139.392625 172.995268 
z
" style="fill:#2ca02c;"/>
   </g>
   <g id="patch_37">
    <path clip-path="url(#pc1b5682d30)" d="M 163.200625 222.766125 
L 167.168625 222.766125 
L 167.168625 168.966264 
L 163.200625 168.966264 
z
" style="fill:#2ca02c;"/>
   </g>
   <g id="patch_38">
    <path clip-path="url(#pc1b5682d30)" d="M 187.008625 222.766125 
L 190.976625 222.766125 
L 190.976625 166.190261 
L 187.008625 166.190261 
z
" style="fill:#2ca02c;"/>
   </g>
   <g id="patch_39">
    <path clip-path="url(#pc1b5682d30)" d="M 210.816625 222.766125 
L 214.784625 222.766125 
L 214.784625 160.164002 
L 210.816625 160.164002 
z
" style="fill:#2ca02c;"/>
   </g>
   <g id="patch_40">
    <path clip-path="url(#pc1b5682d30)" d="M 234.624625 222.766125 
L 238.592625 222.766125 
L 238.592625 157.153489 
L 234.624625 157.153489 
z
" style="fill:#2ca02c;"/>
   </g>
   <g id="patch_41">
    <path clip-path="url(#pc1b5682d30)" d="M 258.432625 222.766125 
L 262.400625 222.766125 
L 262.400625 166.410749 
L 258.432625 166.410749 
z
" style="fill:#2ca02c;"/>
   </g>
   <g id="patch_42">
    <path clip-path="url(#pc1b5682d30)" d="M 282.240625 222.766125 
L 286.208625 222.766125 
L 286.208625 164.217318 
L 282.240625 164.217318 
z
" style="fill:#2ca02c;"/>
   </g>
   <g id="patch_43">
    <path clip-path="url(#pc1b5682d30)" d="M 306.048625 222.766125 
L 310.016625 222.766125 
L 310.016625 170.890273 
L 306.048625 170.890273 
z
" style="fill:#2ca02c;"/>
   </g>
   <g id="patch_44">
    <path clip-path="url(#pc1b5682d30)" d="M 329.856625 222.766125 
L 333.824625 222.766125 
L 333.824625 169.271169 
L 329.856625 169.271169 
z
" style="fill:#2ca02c;"/>
   </g>
   <g id="patch_45">
    <path clip-path="url(#pc1b5682d30)" d="M 353.664625 222.766125 
L 357.632625 222.766125 
L 357.632625 168.695897 
L 353.664625 168.695897 
z
" style="fill:#2ca02c;"/>
   </g>
   <g id="patch_46">
    <path clip-path="url(#pc1b5682d30)" d="M 67.968625 222.766125 
L 71.936625 222.766125 
L 71.936625 172.440542 
L 67.968625 172.440542 
z
" style="fill:#d62728;"/>
   </g>
   <g id="patch_47">
    <path clip-path="url(#pc1b5682d30)" d="M 91.776625 222.766125 
L 95.744625 222.766125 
L 95.744625 190.497953 
L 91.776625 190.497953 
z
" style="fill:#d62728;"/>
   </g>
   <g id="patch_48">
    <path clip-path="url(#pc1b5682d30)" d="M 115.584625 222.766125 
L 119.552625 222.766125 
L 119.552625 187.225346 
L 115.584625 187.225346 
z
" style="fill:#d62728;"/>
   </g>
   <g id="patch_49">
    <path clip-path="url(#pc1b5682d30)" d="M 139.392625 222.766125 
L 143.360625 222.766125 
L 143.360625 186.77747 
L 139.392625 186.77747 
z
" style="fill:#d62728;"/>
   </g>
   <g id="patch_50">
    <path clip-path="url(#pc1b5682d30)" d="M 163.200625 222.766125 
L 167.168625 222.766125 
L 167.168625 185.076156 
L 163.200625 185.076156 
z
" style="fill:#d62728;"/>
   </g>
   <g id="patch_51">
    <path clip-path="url(#pc1b5682d30)" d="M 187.008625 222.766125 
L 190.976625 222.766125 
L 190.976625 181.414516 
L 187.008625 181.414516 
z
" style="fill:#d62728;"/>
   </g>
   <g id="patch_52">
    <path clip-path="url(#pc1b5682d30)" d="M 210.816625 222.766125 
L 214.784625 222.766125 
L 214.784625 178.054543 
L 210.816625 178.054543 
z
" style="fill:#d62728;"/>
   </g>
   <g id="patch_53">
    <path clip-path="url(#pc1b5682d30)" d="M 234.624625 222.766125 
L 238.592625 222.766125 
L 238.592625 174.427078 
L 234.624625 174.427078 
z
" style="fill:#d62728;"/>
   </g>
   <g id="patch_54">
    <path clip-path="url(#pc1b5682d30)" d="M 258.432625 222.766125 
L 262.400625 222.766125 
L 262.400625 180.649554 
L 258.432625 180.649554 
z
" style="fill:#d62728;"/>
   </g>
   <g id="patch_55">
    <path clip-path="url(#pc1b5682d30)" d="M 282.240625 222.766125 
L 286.208625 222.766125 
L 286.208625 177.888549 
L 282.240625 177.888549 
z
" style="fill:#d62728;"/>
   </g>
   <g id="patch_56">
    <path clip-path="url(#pc1b5682d30)" d="M 306.048625 222.766125 
L 310.016625 222.766125 
L 310.016625 183.64696 
L 306.048625 183.64696 
z
" style="fill:#d62728;"/>
   </g>
   <g id="patch_57">
    <path clip-path="url(#pc1b5682d30)" d="M 329.856625 222.766125 
L 333.824625 222.766125 
L 333.824625 182.449796 
L 329.856625 182.449796 
z
" style="fill:#d62728;"/>
   </g>
   <g id="patch_58">
    <path clip-path="url(#pc1b5682d30)" d="M 353.664625 222.766125 
L 357.632625 222.766125 
L 357.632625 181.344623 
L 353.664625 181.344623 
z
" style="fill:#d62728;"/>
   </g>
   <g id="patch_59">
    <path clip-path="url(#pc1b5682d30)" d="M 71.936625 222.766125 
L 75.904625 222.766125 
L 75.904625 155.027591 
L 71.936625 155.027591 
z
" style="fill:#9467bd;"/>
   </g>
   <g id="patch_60">
    <path clip-path="url(#pc1b5682d30)" d="M 95.744625 222.766125 
L 99.712625 222.766125 
L 99.712625 148.814588 
L 95.744625 148.814588 
z
" style="fill:#9467bd;"/>
   </g>
   <g id="patch_61">
    <path clip-path="url(#pc1b5682d30)" d="M 119.552625 222.766125 
L 123.520625 222.766125 
L 123.520625 144.713611 
L 119.552625 144.713611 
z
" style="fill:#9467bd;"/>
   </g>
   <g id="patch_62">
    <path clip-path="url(#pc1b5682d30)" d="M 143.360625 222.766125 
L 147.328625 222.766125 
L 147.328625 147.259764 
L 143.360625 147.259764 
z
" style="fill:#9467bd;"/>
   </g>
   <g id="patch_63">
    <path clip-path="url(#pc1b5682d30)" d="M 167.168625 222.766125 
L 171.136625 222.766125 
L 171.136625 131.611096 
L 167.168625 131.611096 
z
" style="fill:#9467bd;"/>
   </g>
   <g id="patch_64">
    <path clip-path="url(#pc1b5682d30)" d="M 190.976625 222.766125 
L 194.944625 222.766125 
L 194.944625 136.694773 
L 190.976625 136.694773 
z
" style="fill:#9467bd;"/>
   </g>
   <g id="patch_65">
    <path clip-path="url(#pc1b5682d30)" d="M 214.784625 222.766125 
L 218.752625 222.766125 
L 218.752625 137.525853 
L 214.784625 137.525853 
z
" style="fill:#9467bd;"/>
   </g>
   <g id="patch_66">
    <path clip-path="url(#pc1b5682d30)" d="M 238.592625 222.766125 
L 242.560625 222.766125 
L 242.560625 133.800517 
L 238.592625 133.800517 
z
" style="fill:#9467bd;"/>
   </g>
   <g id="patch_67">
    <path clip-path="url(#pc1b5682d30)" d="M 262.400625 222.766125 
L 266.368625 222.766125 
L 266.368625 129.605285 
L 262.400625 129.605285 
z
" style="fill:#9467bd;"/>
   </g>
   <g id="patch_68">
    <path clip-path="url(#pc1b5682d30)" d="M 286.208625 222.766125 
L 290.176625 222.766125 
L 290.176625 132.716414 
L 286.208625 132.716414 
z
" style="fill:#9467bd;"/>
   </g>
   <g id="patch_69">
    <path clip-path="url(#pc1b5682d30)" d="M 310.016625 222.766125 
L 313.984625 222.766125 
L 313.984625 130.166979 
L 310.016625 130.166979 
z
" style="fill:#9467bd;"/>
   </g>
   <g id="patch_70">
    <path clip-path="url(#pc1b5682d30)" d="M 333.824625 222.766125 
L 337.792625 222.766125 
L 337.792625 126.058524 
L 333.824625 126.058524 
z
" style="fill:#9467bd;"/>
   </g>
   <g id="patch_71">
    <path clip-path="url(#pc1b5682d30)" d="M 357.632625 222.766125 
L 361.600625 222.766125 
L 361.600625 129.203367 
L 357.632625 129.203367 
z
" style="fill:#9467bd;"/>
   </g>
   <g id="patch_72">
    <path clip-path="url(#pc1b5682d30)" d="M 71.936625 222.766125 
L 75.904625 222.766125 
L 75.904625 177.663968 
L 71.936625 177.663968 
z
" style="fill:#8c564b;"/>
   </g>
   <g id="patch_73">
    <path clip-path="url(#pc1b5682d30)" d="M 95.744625 222.766125 
L 99.712625 222.766125 
L 99.712625 174.833585 
L 95.744625 174.833585 
z
" style="fill:#8c564b;"/>
   </g>
   <g id="patch_74">
    <path clip-path="url(#pc1b5682d30)" d="M 119.552625 222.766125 
L 123.520625 222.766125 
L 123.520625 172.123971 
L 119.552625 172.123971 
z
" style="fill:#8c564b;"/>
   </g>
   <g id="patch_75">
    <path clip-path="url(#pc1b5682d30)" d="M 143.360625 222.766125 
L 147.328625 222.766125 
L 147.328625 172.515831 
L 143.360625 172.515831 
z
" style="fill:#8c564b;"/>
   </g>
   <g id="patch_76">
    <path clip-path="url(#pc1b5682d30)" d="M 167.168625 222.766125 
L 171.136625 222.766125 
L 171.136625 163.416462 
L 167.168625 163.416462 
z
" style="fill:#8c564b;"/>
   </g>
   <g id="patch_77">
    <path clip-path="url(#pc1b5682d30)" d="M 190.976625 222.766125 
L 194.944625 222.766125 
L 194.944625 165.161201 
L 190.976625 165.161201 
z
" style="fill:#8c564b;"/>
   </g>
   <g id="patch_78">
    <path clip-path="url(#pc1b5682d30)" d="M 214.784625 222.766125 
L 218.752625 222.766125 
L 218.752625 165.42561 
L 214.784625 165.42561 
z
" style="fill:#8c564b;"/>
   </g>
   <g id="patch_79">
    <path clip-path="url(#pc1b5682d30)" d="M 238.592625 222.766125 
L 242.560625 222.766125 
L 242.560625 161.640117 
L 238.592625 161.640117 
z
" style="fill:#8c564b;"/>
   </g>
   <g id="patch_80">
    <path clip-path="url(#pc1b5682d30)" d="M 262.400625 222.766125 
L 266.368625 222.766125 
L 266.368625 158.871917 
L 262.400625 158.871917 
z
" style="fill:#8c564b;"/>
   </g>
   <g id="patch_81">
    <path clip-path="url(#pc1b5682d30)" d="M 286.208625 222.766125 
L 290.176625 222.766125 
L 290.176625 158.418644 
L 286.208625 158.418644 
z
" style="fill:#8c564b;"/>
   </g>
   <g id="patch_82">
    <path clip-path="url(#pc1b5682d30)" d="M 310.016625 222.766125 
L 313.984625 222.766125 
L 313.984625 159.974263 
L 310.016625 159.974263 
z
" style="fill:#8c564b;"/>
   </g>
   <g id="patch_83">
    <path clip-path="url(#pc1b5682d30)" d="M 333.824625 222.766125 
L 337.792625 222.766125 
L 337.792625 154.196324 
L 333.824625 154.196324 
z
" style="fill:#8c564b;"/>
   </g>
   <g id="patch_84">
    <path clip-path="url(#pc1b5682d30)" d="M 357.632625 222.766125 
L 361.600625 222.766125 
L 361.600625 156.222174 
L 357.632625 156.222174 
z
" style="fill:#8c564b;"/>
   </g>
   <g id="text_24">
    <g id="patch_85">
     <path d="M 395.968625 227.337844 
L 619.570813 227.337844 
Q 622.270813 227.337844 622.270813 224.637844 
L 622.270813 195.771469 
Q 622.270813 193.071469 619.570813 193.071469 
L 395.968625 193.071469 
Q 393.268625 193.071469 393.268625 195.771469 
L 393.268625 224.637844 
Q 393.268625 227.337844 395.968625 227.337844 
z
" style="fill:#ffffff;opacity:0.5;stroke:#000000;stroke-linejoin:miter;"/>
    </g>
    <!-- Number of Threads: 8 -->
    <defs>
     <path d="M -0.296875 72.90625 
L 61.375 72.90625 
L 61.375 64.59375 
L 35.5 64.59375 
L 35.5 0 
L 25.59375 0 
L 25.59375 64.59375 
L -0.296875 64.59375 
z
" id="DejaVuSans-54"/>
     <path d="M 54.890625 33.015625 
L 54.890625 0 
L 45.90625 0 
L 45.90625 32.71875 
Q 45.90625 40.484375 42.875 44.328125 
Q 39.84375 48.1875 33.796875 48.1875 
Q 26.515625 48.1875 22.3125 43.546875 
Q 18.109375 38.921875 18.109375 30.90625 
L 18.109375 0 
L 9.078125 0 
L 9.078125 75.984375 
L 18.109375 75.984375 
L 18.109375 46.1875 
Q 21.34375 51.125 25.703125 53.5625 
Q 30.078125 56 35.796875 56 
Q 45.21875 56 50.046875 50.171875 
Q 54.890625 44.34375 54.890625 33.015625 
z
" id="DejaVuSans-68"/>
     <path d="M 34.28125 27.484375 
Q 23.390625 27.484375 19.1875 25 
Q 14.984375 22.515625 14.984375 16.5 
Q 14.984375 11.71875 18.140625 8.90625 
Q 21.296875 6.109375 26.703125 6.109375 
Q 34.1875 6.109375 38.703125 11.40625 
Q 43.21875 16.703125 43.21875 25.484375 
L 43.21875 27.484375 
z
M 52.203125 31.203125 
L 52.203125 0 
L 43.21875 0 
L 43.21875 8.296875 
Q 40.140625 3.328125 35.546875 0.953125 
Q 30.953125 -1.421875 24.3125 -1.421875 
Q 15.921875 -1.421875 10.953125 3.296875 
Q 6 8.015625 6 15.921875 
Q 6 25.140625 12.171875 29.828125 
Q 18.359375 34.515625 30.609375 34.515625 
L 43.21875 34.515625 
L 43.21875 35.40625 
Q 43.21875 41.609375 39.140625 45 
Q 35.0625 48.390625 27.6875 48.390625 
Q 23 48.390625 18.546875 47.265625 
Q 14.109375 46.140625 10.015625 43.890625 
L 10.015625 52.203125 
Q 14.9375 54.109375 19.578125 55.046875 
Q 24.21875 56 28.609375 56 
Q 40.484375 56 46.34375 49.84375 
Q 52.203125 43.703125 52.203125 31.203125 
z
" id="DejaVuSans-61"/>
     <path d="M 11.71875 12.40625 
L 22.015625 12.40625 
L 22.015625 0 
L 11.71875 0 
z
M 11.71875 51.703125 
L 22.015625 51.703125 
L 22.015625 39.3125 
L 11.71875 39.3125 
z
" id="DejaVuSans-3a"/>
    </defs>
    <g transform="translate(395.968625 202.610062)scale(0.09 -0.09)">
     <use xlink:href="#DejaVuSans-4e"/>
     <use x="74.804688" xlink:href="#DejaVuSans-75"/>
     <use x="138.183594" xlink:href="#DejaVuSans-6d"/>
     <use x="235.595703" xlink:href="#DejaVuSans-62"/>
     <use x="299.072266" xlink:href="#DejaVuSans-65"/>
     <use x="360.595703" xlink:href="#DejaVuSans-72"/>
     <use x="401.708984" xlink:href="#DejaVuSans-20"/>
     <use x="433.496094" xlink:href="#DejaVuSans-6f"/>
     <use x="494.677734" xlink:href="#DejaVuSans-66"/>
     <use x="529.882812" xlink:href="#DejaVuSans-20"/>
     <use x="561.669922" xlink:href="#DejaVuSans-54"/>
     <use x="622.753906" xlink:href="#DejaVuSans-68"/>
     <use x="686.132812" xlink:href="#DejaVuSans-72"/>
     <use x="727.214844" xlink:href="#DejaVuSans-65"/>
     <use x="788.738281" xlink:href="#DejaVuSans-61"/>
     <use x="850.017578" xlink:href="#DejaVuSans-64"/>
     <use x="913.494141" xlink:href="#DejaVuSans-73"/>
     <use x="965.59375" xlink:href="#DejaVuSans-3a"/>
     <use x="999.285156" xlink:href="#DejaVuSans-20"/>
     <use x="1031.072266" xlink:href="#DejaVuSans-38"/>
    </g>
    <!-- Hardware Concurrency: 8 ( Cores: 4 , Sockets: 1 ) -->
    <defs>
     <path d="M 9.8125 72.90625 
L 19.671875 72.90625 
L 19.671875 43.015625 
L 55.515625 43.015625 
L 55.515625 72.90625 
L 65.375 72.90625 
L 65.375 0 
L 55.515625 0 
L 55.515625 34.71875 
L 19.671875 34.71875 
L 19.671875 0 
L 9.8125 0 
z
" id="DejaVuSans-48"/>
     <path d="M 4.203125 54.6875 
L 13.1875 54.6875 
L 24.421875 12.015625 
L 35.59375 54.6875 
L 46.1875 54.6875 
L 57.421875 12.015625 
L 68.609375 54.6875 
L 77.59375 54.6875 
L 63.28125 0 
L 52.6875 0 
L 40.921875 44.828125 
L 29.109375 0 
L 18.5 0 
z
" id="DejaVuSans-77"/>
     <path d="M 54.890625 33.015625 
L 54.890625 0 
L 45.90625 0 
L 45.90625 32.71875 
Q 45.90625 40.484375 42.875 44.328125 
Q 39.84375 48.1875 33.796875 48.1875 
Q 26.515625 48.1875 22.3125 43.546875 
Q 18.109375 38.921875 18.109375 30.90625 
L 18.109375 0 
L 9.078125 0 
L 9.078125 54.6875 
L 18.109375 54.6875 
L 18.109375 46.1875 
Q 21.34375 51.125 25.703125 53.5625 
Q 30.078125 56 35.796875 56 
Q 45.21875 56 50.046875 50.171875 
Q 54.890625 44.34375 54.890625 33.015625 
z
" id="DejaVuSans-6e"/>
     <path d="M 48.78125 52.59375 
L 48.78125 44.1875 
Q 44.96875 46.296875 41.140625 47.34375 
Q 37.3125 48.390625 33.40625 48.390625 
Q 24.65625 48.390625 19.8125 42.84375 
Q 14.984375 37.3125 14.984375 27.296875 
Q 14.984375 17.28125 19.8125 11.734375 
Q 24.65625 6.203125 33.40625 6.203125 
Q 37.3125 6.203125 41.140625 7.25 
Q 44.96875 8.296875 48.78125 10.40625 
L 48.78125 2.09375 
Q 45.015625 0.34375 40.984375 -0.53125 
Q 36.96875 -1.421875 32.421875 -1.421875 
Q 20.0625 -1.421875 12.78125 6.34375 
Q 5.515625 14.109375 5.515625 27.296875 
Q 5.515625 40.671875 12.859375 48.328125 
Q 20.21875 56 33.015625 56 
Q 37.15625 56 41.109375 55.140625 
Q 45.0625 54.296875 48.78125 52.59375 
z
" id="DejaVuSans-63"/>
     <path d="M 32.171875 -5.078125 
Q 28.375 -14.84375 24.75 -17.8125 
Q 21.140625 -20.796875 15.09375 -20.796875 
L 7.90625 -20.796875 
L 7.90625 -13.28125 
L 13.1875 -13.28125 
Q 16.890625 -13.28125 18.9375 -11.515625 
Q 21 -9.765625 23.484375 -3.21875 
L 25.09375 0.875 
L 2.984375 54.6875 
L 12.5 54.6875 
L 29.59375 11.921875 
L 46.6875 54.6875 
L 56.203125 54.6875 
z
" id="DejaVuSans-79"/>
     <path d="M 31 75.875 
Q 24.46875 64.65625 21.28125 53.65625 
Q 18.109375 42.671875 18.109375 31.390625 
Q 18.109375 20.125 21.3125 9.0625 
Q 24.515625 -2 31 -13.1875 
L 23.1875 -13.1875 
Q 15.875 -1.703125 12.234375 9.375 
Q 8.59375 20.453125 8.59375 31.390625 
Q 8.59375 42.28125 12.203125 53.3125 
Q 15.828125 64.359375 23.1875 75.875 
z
" id="DejaVuSans-28"/>
     <path d="M 11.71875 12.40625 
L 22.015625 12.40625 
L 22.015625 4 
L 14.015625 -11.625 
L 7.71875 -11.625 
L 11.71875 4 
z
" id="DejaVuSans-2c"/>
     <path d="M 9.078125 75.984375 
L 18.109375 75.984375 
L 18.109375 31.109375 
L 44.921875 54.6875 
L 56.390625 54.6875 
L 27.390625 29.109375 
L 57.625 0 
L 45.90625 0 
L 18.109375 26.703125 
L 18.109375 0 
L 9.078125 0 
z
" id="DejaVuSans-6b"/>
     <path d="M 8.015625 75.875 
L 15.828125 75.875 
Q 23.140625 64.359375 26.78125 53.3125 
Q 30.421875 42.28125 30.421875 31.390625 
Q 30.421875 20.453125 26.78125 9.375 
Q 23.140625 -1.703125 15.828125 -13.1875 
L 8.015625 -13.1875 
Q 14.5 -2 17.703125 9.0625 
Q 20.90625 20.125 20.90625 31.390625 
Q 20.90625 42.671875 17.703125 53.65625 
Q 14.5 64.65625 8.015625 75.875 
z
" id="DejaVuSans-29"/>
    </defs>
    <g transform="translate(395.968625 212.688094)scale(0.09 -0.09)">
     <use xlink:href="#DejaVuSans-48"/>
     <use x="75.195312" xlink:href="#DejaVuSans-61"/>
     <use x="136.474609" xlink:href="#DejaVuSans-72"/>
     <use x="177.572266" xlink:href="#DejaVuSans-64"/>
     <use x="241.048828" xlink:href="#DejaVuSans-77"/>
     <use x="322.835938" xlink:href="#DejaVuSans-61"/>
     <use x="384.115234" xlink:href="#DejaVuSans-72"/>
     <use x="425.197266" xlink:href="#DejaVuSans-65"/>
     <use x="486.720703" xlink:href="#DejaVuSans-20"/>
     <use x="518.507812" xlink:href="#DejaVuSans-43"/>
     <use x="588.332031" xlink:href="#DejaVuSans-6f"/>
     <use x="649.513672" xlink:href="#DejaVuSans-6e"/>
     <use x="712.892578" xlink:href="#DejaVuSans-63"/>
     <use x="767.873047" xlink:href="#DejaVuSans-75"/>
     <use x="831.251953" xlink:href="#DejaVuSans-72"/>
     <use x="872.349609" xlink:href="#DejaVuSans-72"/>
     <use x="913.431641" xlink:href="#DejaVuSans-65"/>
     <use x="974.955078" xlink:href="#DejaVuSans-6e"/>
     <use x="1038.333984" xlink:href="#DejaVuSans-63"/>
     <use x="1093.314453" xlink:href="#DejaVuSans-79"/>
     <use x="1152.384766" xlink:href="#DejaVuSans-3a"/>
     <use x="1186.076172" xlink:href="#DejaVuSans-20"/>
     <use x="1217.863281" xlink:href="#DejaVuSans-38"/>
     <use x="1281.486328" xlink:href="#DejaVuSans-20"/>
     <use x="1313.273438" xlink:href="#DejaVuSans-28"/>
     <use x="1352.287109" xlink:href="#DejaVuSans-20"/>
     <use x="1384.074219" xlink:href="#DejaVuSans-43"/>
     <use x="1453.898438" xlink:href="#DejaVuSans-6f"/>
     <use x="1515.080078" xlink:href="#DejaVuSans-72"/>
     <use x="1556.162109" xlink:href="#DejaVuSans-65"/>
     <use x="1617.685547" xlink:href="#DejaVuSans-73"/>
     <use x="1669.785156" xlink:href="#DejaVuSans-3a"/>
     <use x="1703.476562" xlink:href="#DejaVuSans-20"/>
     <use x="1735.263672" xlink:href="#DejaVuSans-34"/>
     <use x="1798.886719" xlink:href="#DejaVuSans-20"/>
     <use x="1830.673828" xlink:href="#DejaVuSans-2c"/>
     <use x="1862.460938" xlink:href="#DejaVuSans-20"/>
     <use x="1894.248047" xlink:href="#DejaVuSans-53"/>
     <use x="1957.724609" xlink:href="#DejaVuSans-6f"/>
     <use x="2018.90625" xlink:href="#DejaVuSans-63"/>
     <use x="2073.886719" xlink:href="#DejaVuSans-6b"/>
     <use x="2131.75" xlink:href="#DejaVuSans-65"/>
     <use x="2193.273438" xlink:href="#DejaVuSans-74"/>
     <use x="2232.482422" xlink:href="#DejaVuSans-73"/>
     <use x="2284.582031" xlink:href="#DejaVuSans-3a"/>
     <use x="2318.273438" xlink:href="#DejaVuSans-20"/>
     <use x="2350.060547" xlink:href="#DejaVuSans-31"/>
     <use x="2413.683594" xlink:href="#DejaVuSans-20"/>
     <use x="2445.470703" xlink:href="#DejaVuSans-29"/>
    </g>
    <!-- Number of Runs for AVG: 5 -->
    <defs>
     <path d="M 44.390625 34.1875 
Q 47.5625 33.109375 50.5625 29.59375 
Q 53.5625 26.078125 56.59375 19.921875 
L 66.609375 0 
L 56 0 
L 46.6875 18.703125 
Q 43.0625 26.03125 39.671875 28.421875 
Q 36.28125 30.8125 30.421875 30.8125 
L 19.671875 30.8125 
L 19.671875 0 
L 9.8125 0 
L 9.8125 72.90625 
L 32.078125 72.90625 
Q 44.578125 72.90625 50.734375 67.671875 
Q 56.890625 62.453125 56.890625 51.90625 
Q 56.890625 45.015625 53.6875 40.46875 
Q 50.484375 35.9375 44.390625 34.1875 
z
M 19.671875 64.796875 
L 19.671875 38.921875 
L 32.078125 38.921875 
Q 39.203125 38.921875 42.84375 42.21875 
Q 46.484375 45.515625 46.484375 51.90625 
Q 46.484375 58.296875 42.84375 61.546875 
Q 39.203125 64.796875 32.078125 64.796875 
z
" id="DejaVuSans-52"/>
     <path d="M 34.1875 63.1875 
L 20.796875 26.90625 
L 47.609375 26.90625 
z
M 28.609375 72.90625 
L 39.796875 72.90625 
L 67.578125 0 
L 57.328125 0 
L 50.6875 18.703125 
L 17.828125 18.703125 
L 11.1875 0 
L 0.78125 0 
z
" id="DejaVuSans-41"/>
     <path d="M 28.609375 0 
L 0.78125 72.90625 
L 11.078125 72.90625 
L 34.1875 11.53125 
L 57.328125 72.90625 
L 67.578125 72.90625 
L 39.796875 0 
z
" id="DejaVuSans-56"/>
     <path d="M 59.515625 10.40625 
L 59.515625 29.984375 
L 43.40625 29.984375 
L 43.40625 38.09375 
L 69.28125 38.09375 
L 69.28125 6.78125 
Q 63.578125 2.734375 56.6875 0.65625 
Q 49.8125 -1.421875 42 -1.421875 
Q 24.90625 -1.421875 15.25 8.5625 
Q 5.609375 18.5625 5.609375 36.375 
Q 5.609375 54.25 15.25 64.234375 
Q 24.90625 74.21875 42 74.21875 
Q 49.125 74.21875 55.546875 72.453125 
Q 61.96875 70.703125 67.390625 67.28125 
L 67.390625 56.78125 
Q 61.921875 61.421875 55.765625 63.765625 
Q 49.609375 66.109375 42.828125 66.109375 
Q 29.4375 66.109375 22.71875 58.640625 
Q 16.015625 51.171875 16.015625 36.375 
Q 16.015625 21.625 22.71875 14.15625 
Q 29.4375 6.6875 42.828125 6.6875 
Q 48.046875 6.6875 52.140625 7.59375 
Q 56.25 8.5 59.515625 10.40625 
z
" id="DejaVuSans-47"/>
    </defs>
    <g transform="translate(395.968625 222.766125)scale(0.09 -0.09)">
     <use xlink:href="#DejaVuSans-4e"/>
     <use x="74.804688" xlink:href="#DejaVuSans-75"/>
     <use x="138.183594" xlink:href="#DejaVuSans-6d"/>
     <use x="235.595703" xlink:href="#DejaVuSans-62"/>
     <use x="299.072266" xlink:href="#DejaVuSans-65"/>
     <use x="360.595703" xlink:href="#DejaVuSans-72"/>
     <use x="401.708984" xlink:href="#DejaVuSans-20"/>
     <use x="433.496094" xlink:href="#DejaVuSans-6f"/>
     <use x="494.677734" xlink:href="#DejaVuSans-66"/>
     <use x="529.882812" xlink:href="#DejaVuSans-20"/>
     <use x="561.669922" xlink:href="#DejaVuSans-52"/>
     <use x="631.089844" xlink:href="#DejaVuSans-75"/>
     <use x="694.46875" xlink:href="#DejaVuSans-6e"/>
     <use x="757.847656" xlink:href="#DejaVuSans-73"/>
     <use x="809.947266" xlink:href="#DejaVuSans-20"/>
     <use x="841.734375" xlink:href="#DejaVuSans-66"/>
     <use x="876.939453" xlink:href="#DejaVuSans-6f"/>
     <use x="938.121094" xlink:href="#DejaVuSans-72"/>
     <use x="979.234375" xlink:href="#DejaVuSans-20"/>
     <use x="1011.021484" xlink:href="#DejaVuSans-41"/>
     <use x="1079.335938" xlink:href="#DejaVuSans-56"/>
     <use x="1147.744141" xlink:href="#DejaVuSans-47"/>
     <use x="1225.234375" xlink:href="#DejaVuSans-3a"/>
     <use x="1258.925781" xlink:href="#DejaVuSans-20"/>
     <use x="1290.712891" xlink:href="#DejaVuSans-35"/>
    </g>
   </g>
   <g id="text_25">
    <!-- K-Means(Mapreduce) Problem Benchmark -->
    <defs>
     <path d="M 9.8125 72.90625 
L 19.671875 72.90625 
L 19.671875 42.09375 
L 52.390625 72.90625 
L 65.09375 72.90625 
L 28.90625 38.921875 
L 67.671875 0 
L 54.6875 0 
L 19.671875 35.109375 
L 19.671875 0 
L 9.8125 0 
z
" id="DejaVuSans-4b"/>
     <path d="M 4.890625 31.390625 
L 31.203125 31.390625 
L 31.203125 23.390625 
L 4.890625 23.390625 
z
" id="DejaVuSans-2d"/>
     <path d="M 9.8125 72.90625 
L 24.515625 72.90625 
L 43.109375 23.296875 
L 61.8125 72.90625 
L 76.515625 72.90625 
L 76.515625 0 
L 66.890625 0 
L 66.890625 64.015625 
L 48.09375 14.015625 
L 38.1875 14.015625 
L 19.390625 64.015625 
L 19.390625 0 
L 9.8125 0 
z
" id="DejaVuSans-4d"/>
     <path d="M 19.671875 64.796875 
L 19.671875 37.40625 
L 32.078125 37.40625 
Q 38.96875 37.40625 42.71875 40.96875 
Q 46.484375 44.53125 46.484375 51.125 
Q 46.484375 57.671875 42.71875 61.234375 
Q 38.96875 64.796875 32.078125 64.796875 
z
M 9.8125 72.90625 
L 32.078125 72.90625 
Q 44.34375 72.90625 50.609375 67.359375 
Q 56.890625 61.8125 56.890625 51.125 
Q 56.890625 40.328125 50.609375 34.8125 
Q 44.34375 29.296875 32.078125 29.296875 
L 19.671875 29.296875 
L 19.671875 0 
L 9.8125 0 
z
" id="DejaVuSans-50"/>
     <path d="M 19.671875 34.8125 
L 19.671875 8.109375 
L 35.5 8.109375 
Q 43.453125 8.109375 47.28125 11.40625 
Q 51.125 14.703125 51.125 21.484375 
Q 51.125 28.328125 47.28125 31.5625 
Q 43.453125 34.8125 35.5 34.8125 
z
M 19.671875 64.796875 
L 19.671875 42.828125 
L 34.28125 42.828125 
Q 41.5 42.828125 45.03125 45.53125 
Q 48.578125 48.25 48.578125 53.8125 
Q 48.578125 59.328125 45.03125 62.0625 
Q 41.5 64.796875 34.28125 64.796875 
z
M 9.8125 72.90625 
L 35.015625 72.90625 
Q 46.296875 72.90625 52.390625 68.21875 
Q 58.5 63.53125 58.5 54.890625 
Q 58.5 48.1875 55.375 44.234375 
Q 52.25 40.28125 46.1875 39.3125 
Q 53.46875 37.75 57.5 32.78125 
Q 61.53125 27.828125 61.53125 20.40625 
Q 61.53125 10.640625 54.890625 5.3125 
Q 48.25 0 35.984375 0 
L 9.8125 0 
z
" id="DejaVuSans-42"/>
    </defs>
    <g transform="translate(86.379688 16.318125)scale(0.12 -0.12)">
     <use xlink:href="#DejaVuSans-4b"/>
     <use x="65.419922" xlink:href="#DejaVuSans-2d"/>
     <use x="101.503906" xlink:href="#DejaVuSans-4d"/>
     <use x="187.783203" xlink:href="#DejaVuSans-65"/>
     <use x="249.306641" xlink:href="#DejaVuSans-61"/>
     <use x="310.585938" xlink:href="#DejaVuSans-6e"/>
     <use x="373.964844" xlink:href="#DejaVuSans-73"/>
     <use x="426.064453" xlink:href="#DejaVuSans-28"/>
     <use x="465.078125" xlink:href="#DejaVuSans-4d"/>
     <use x="551.357422" xlink:href="#DejaVuSans-61"/>
     <use x="612.636719" xlink:href="#DejaVuSans-70"/>
     <use x="676.113281" xlink:href="#DejaVuSans-72"/>
     <use x="717.195312" xlink:href="#DejaVuSans-65"/>
     <use x="778.71875" xlink:href="#DejaVuSans-64"/>
     <use x="842.195312" xlink:href="#DejaVuSans-75"/>
     <use x="905.574219" xlink:href="#DejaVuSans-63"/>
     <use x="960.554688" xlink:href="#DejaVuSans-65"/>
     <use x="1022.078125" xlink:href="#DejaVuSans-29"/>
     <use x="1061.091797" xlink:href="#DejaVuSans-20"/>
     <use x="1092.878906" xlink:href="#DejaVuSans-50"/>
     <use x="1153.166016" xlink:href="#DejaVuSans-72"/>
     <use x="1194.248047" xlink:href="#DejaVuSans-6f"/>
     <use x="1255.429688" xlink:href="#DejaVuSans-62"/>
     <use x="1318.90625" xlink:href="#DejaVuSans-6c"/>
     <use x="1346.689453" xlink:href="#DejaVuSans-65"/>
     <use x="1408.212891" xlink:href="#DejaVuSans-6d"/>
     <use x="1505.625" xlink:href="#DejaVuSans-20"/>
     <use x="1537.412109" xlink:href="#DejaVuSans-42"/>
     <use x="1606.015625" xlink:href="#DejaVuSans-65"/>
     <use x="1667.539062" xlink:href="#DejaVuSans-6e"/>
     <use x="1730.917969" xlink:href="#DejaVuSans-63"/>
     <use x="1785.898438" xlink:href="#DejaVuSans-68"/>
     <use x="1849.277344" xlink:href="#DejaVuSans-6d"/>
     <use x="1946.689453" xlink:href="#DejaVuSans-61"/>
     <use x="2007.96875" xlink:href="#DejaVuSans-72"/>
     <use x="2049.082031" xlink:href="#DejaVuSans-6b"/>
    </g>
   </g>
   <g id="legend_1">
    <g id="patch_86">
     <path d="M 397.660625 108.78 
L 561.275 108.78 
Q 563.075 108.78 563.075 106.98 
L 563.075 28.618125 
Q 563.075 26.818125 561.275 26.818125 
L 397.660625 26.818125 
Q 395.860625 26.818125 395.860625 28.618125 
L 395.860625 106.98 
Q 395.860625 108.78 397.660625 108.78 
z
" style="fill:#ffffff;opacity:0.8;stroke:#cccccc;stroke-linejoin:miter;"/>
    </g>
    <g id="patch_87">
     <path d="M 399.460625 37.256719 
L 417.460625 37.256719 
L 417.460625 30.956719 
L 399.460625 30.956719 
z
" style="fill:#1f77b4;"/>
    </g>
    <g id="text_26">
     <!-- 1E+04 Points (Pthr. Speedup) -->
     <defs>
      <path d="M 9.8125 72.90625 
L 55.90625 72.90625 
L 55.90625 64.59375 
L 19.671875 64.59375 
L 19.671875 43.015625 
L 54.390625 43.015625 
L 54.390625 34.71875 
L 19.671875 34.71875 
L 19.671875 8.296875 
L 56.78125 8.296875 
L 56.78125 0 
L 9.8125 0 
z
" id="DejaVuSans-45"/>
      <path d="M 46 62.703125 
L 46 35.5 
L 73.1875 35.5 
L 73.1875 27.203125 
L 46 27.203125 
L 46 0 
L 37.796875 0 
L 37.796875 27.203125 
L 10.59375 27.203125 
L 10.59375 35.5 
L 37.796875 35.5 
L 37.796875 62.703125 
z
" id="DejaVuSans-2b"/>
      <path d="M 9.421875 54.6875 
L 18.40625 54.6875 
L 18.40625 0 
L 9.421875 0 
z
M 9.421875 75.984375 
L 18.40625 75.984375 
L 18.40625 64.59375 
L 9.421875 64.59375 
z
" id="DejaVuSans-69"/>
      <path d="M 10.6875 12.40625 
L 21 12.40625 
L 21 0 
L 10.6875 0 
z
" id="DejaVuSans-2e"/>
     </defs>
     <g transform="translate(424.660625 37.256719)scale(0.09 -0.09)">
      <use xlink:href="#DejaVuSans-31"/>
      <use x="63.623047" xlink:href="#DejaVuSans-45"/>
      <use x="126.806641" xlink:href="#DejaVuSans-2b"/>
      <use x="210.595703" xlink:href="#DejaVuSans-30"/>
      <use x="274.21875" xlink:href="#DejaVuSans-34"/>
      <use x="337.841797" xlink:href="#DejaVuSans-20"/>
      <use x="369.628906" xlink:href="#DejaVuSans-50"/>
      <use x="429.884766" xlink:href="#DejaVuSans-6f"/>
      <use x="491.066406" xlink:href="#DejaVuSans-69"/>
      <use x="518.849609" xlink:href="#DejaVuSans-6e"/>
      <use x="582.228516" xlink:href="#DejaVuSans-74"/>
      <use x="621.4375" xlink:href="#DejaVuSans-73"/>
      <use x="673.537109" xlink:href="#DejaVuSans-20"/>
      <use x="705.324219" xlink:href="#DejaVuSans-28"/>
      <use x="744.337891" xlink:href="#DejaVuSans-50"/>
      <use x="804.640625" xlink:href="#DejaVuSans-74"/>
      <use x="843.849609" xlink:href="#DejaVuSans-68"/>
      <use x="907.228516" xlink:href="#DejaVuSans-72"/>
      <use x="948.201172" xlink:href="#DejaVuSans-2e"/>
      <use x="979.988281" xlink:href="#DejaVuSans-20"/>
      <use x="1011.775391" xlink:href="#DejaVuSans-53"/>
      <use x="1075.251953" xlink:href="#DejaVuSans-70"/>
      <use x="1138.728516" xlink:href="#DejaVuSans-65"/>
      <use x="1200.251953" xlink:href="#DejaVuSans-65"/>
      <use x="1261.775391" xlink:href="#DejaVuSans-64"/>
      <use x="1325.251953" xlink:href="#DejaVuSans-75"/>
      <use x="1388.630859" xlink:href="#DejaVuSans-70"/>
      <use x="1452.107422" xlink:href="#DejaVuSans-29"/>
     </g>
    </g>
    <g id="patch_88">
     <path d="M 399.460625 50.467031 
L 417.460625 50.467031 
L 417.460625 44.167031 
L 399.460625 44.167031 
z
" style="fill:#ff7f0e;"/>
    </g>
    <g id="text_27">
     <!-- 1E+04 Points (Skel. Speedup) -->
     <g transform="translate(424.660625 50.467031)scale(0.09 -0.09)">
      <use xlink:href="#DejaVuSans-31"/>
      <use x="63.623047" xlink:href="#DejaVuSans-45"/>
      <use x="126.806641" xlink:href="#DejaVuSans-2b"/>
      <use x="210.595703" xlink:href="#DejaVuSans-30"/>
      <use x="274.21875" xlink:href="#DejaVuSans-34"/>
      <use x="337.841797" xlink:href="#DejaVuSans-20"/>
      <use x="369.628906" xlink:href="#DejaVuSans-50"/>
      <use x="429.884766" xlink:href="#DejaVuSans-6f"/>
      <use x="491.066406" xlink:href="#DejaVuSans-69"/>
      <use x="518.849609" xlink:href="#DejaVuSans-6e"/>
      <use x="582.228516" xlink:href="#DejaVuSans-74"/>
      <use x="621.4375" xlink:href="#DejaVuSans-73"/>
      <use x="673.537109" xlink:href="#DejaVuSans-20"/>
      <use x="705.324219" xlink:href="#DejaVuSans-28"/>
      <use x="744.337891" xlink:href="#DejaVuSans-53"/>
      <use x="807.814453" xlink:href="#DejaVuSans-6b"/>
      <use x="865.677734" xlink:href="#DejaVuSans-65"/>
      <use x="927.201172" xlink:href="#DejaVuSans-6c"/>
      <use x="954.984375" xlink:href="#DejaVuSans-2e"/>
      <use x="986.771484" xlink:href="#DejaVuSans-20"/>
      <use x="1018.558594" xlink:href="#DejaVuSans-53"/>
      <use x="1082.035156" xlink:href="#DejaVuSans-70"/>
      <use x="1145.511719" xlink:href="#DejaVuSans-65"/>
      <use x="1207.035156" xlink:href="#DejaVuSans-65"/>
      <use x="1268.558594" xlink:href="#DejaVuSans-64"/>
      <use x="1332.035156" xlink:href="#DejaVuSans-75"/>
      <use x="1395.414062" xlink:href="#DejaVuSans-70"/>
      <use x="1458.890625" xlink:href="#DejaVuSans-29"/>
     </g>
    </g>
    <g id="patch_89">
     <path d="M 399.460625 63.677344 
L 417.460625 63.677344 
L 417.460625 57.377344 
L 399.460625 57.377344 
z
" style="fill:#2ca02c;"/>
    </g>
    <g id="text_28">
     <!-- 1E+05 Points (Pthr. Speedup) -->
     <g transform="translate(424.660625 63.677344)scale(0.09 -0.09)">
      <use xlink:href="#DejaVuSans-31"/>
      <use x="63.623047" xlink:href="#DejaVuSans-45"/>
      <use x="126.806641" xlink:href="#DejaVuSans-2b"/>
      <use x="210.595703" xlink:href="#DejaVuSans-30"/>
      <use x="274.21875" xlink:href="#DejaVuSans-35"/>
      <use x="337.841797" xlink:href="#DejaVuSans-20"/>
      <use x="369.628906" xlink:href="#DejaVuSans-50"/>
      <use x="429.884766" xlink:href="#DejaVuSans-6f"/>
      <use x="491.066406" xlink:href="#DejaVuSans-69"/>
      <use x="518.849609" xlink:href="#DejaVuSans-6e"/>
      <use x="582.228516" xlink:href="#DejaVuSans-74"/>
      <use x="621.4375" xlink:href="#DejaVuSans-73"/>
      <use x="673.537109" xlink:href="#DejaVuSans-20"/>
      <use x="705.324219" xlink:href="#DejaVuSans-28"/>
      <use x="744.337891" xlink:href="#DejaVuSans-50"/>
      <use x="804.640625" xlink:href="#DejaVuSans-74"/>
      <use x="843.849609" xlink:href="#DejaVuSans-68"/>
      <use x="907.228516" xlink:href="#DejaVuSans-72"/>
      <use x="948.201172" xlink:href="#DejaVuSans-2e"/>
      <use x="979.988281" xlink:href="#DejaVuSans-20"/>
      <use x="1011.775391" xlink:href="#DejaVuSans-53"/>
      <use x="1075.251953" xlink:href="#DejaVuSans-70"/>
      <use x="1138.728516" xlink:href="#DejaVuSans-65"/>
      <use x="1200.251953" xlink:href="#DejaVuSans-65"/>
      <use x="1261.775391" xlink:href="#DejaVuSans-64"/>
      <use x="1325.251953" xlink:href="#DejaVuSans-75"/>
      <use x="1388.630859" xlink:href="#DejaVuSans-70"/>
      <use x="1452.107422" xlink:href="#DejaVuSans-29"/>
     </g>
    </g>
    <g id="patch_90">
     <path d="M 399.460625 76.887656 
L 417.460625 76.887656 
L 417.460625 70.587656 
L 399.460625 70.587656 
z
" style="fill:#d62728;"/>
    </g>
    <g id="text_29">
     <!-- 1E+05 Points (Skel. Speedup) -->
     <g transform="translate(424.660625 76.887656)scale(0.09 -0.09)">
      <use xlink:href="#DejaVuSans-31"/>
      <use x="63.623047" xlink:href="#DejaVuSans-45"/>
      <use x="126.806641" xlink:href="#DejaVuSans-2b"/>
      <use x="210.595703" xlink:href="#DejaVuSans-30"/>
      <use x="274.21875" xlink:href="#DejaVuSans-35"/>
      <use x="337.841797" xlink:href="#DejaVuSans-20"/>
      <use x="369.628906" xlink:href="#DejaVuSans-50"/>
      <use x="429.884766" xlink:href="#DejaVuSans-6f"/>
      <use x="491.066406" xlink:href="#DejaVuSans-69"/>
      <use x="518.849609" xlink:href="#DejaVuSans-6e"/>
      <use x="582.228516" xlink:href="#DejaVuSans-74"/>
      <use x="621.4375" xlink:href="#DejaVuSans-73"/>
      <use x="673.537109" xlink:href="#DejaVuSans-20"/>
      <use x="705.324219" xlink:href="#DejaVuSans-28"/>
      <use x="744.337891" xlink:href="#DejaVuSans-53"/>
      <use x="807.814453" xlink:href="#DejaVuSans-6b"/>
      <use x="865.677734" xlink:href="#DejaVuSans-65"/>
      <use x="927.201172" xlink:href="#DejaVuSans-6c"/>
      <use x="954.984375" xlink:href="#DejaVuSans-2e"/>
      <use x="986.771484" xlink:href="#DejaVuSans-20"/>
      <use x="1018.558594" xlink:href="#DejaVuSans-53"/>
      <use x="1082.035156" xlink:href="#DejaVuSans-70"/>
      <use x="1145.511719" xlink:href="#DejaVuSans-65"/>
      <use x="1207.035156" xlink:href="#DejaVuSans-65"/>
      <use x="1268.558594" xlink:href="#DejaVuSans-64"/>
      <use x="1332.035156" xlink:href="#DejaVuSans-75"/>
      <use x="1395.414062" xlink:href="#DejaVuSans-70"/>
      <use x="1458.890625" xlink:href="#DejaVuSans-29"/>
     </g>
    </g>
    <g id="patch_91">
     <path d="M 399.460625 90.097969 
L 417.460625 90.097969 
L 417.460625 83.797969 
L 399.460625 83.797969 
z
" style="fill:#9467bd;"/>
    </g>
    <g id="text_30">
     <!-- 1E+06 Points (Pthr. Speedup) -->
     <g transform="translate(424.660625 90.097969)scale(0.09 -0.09)">
      <use xlink:href="#DejaVuSans-31"/>
      <use x="63.623047" xlink:href="#DejaVuSans-45"/>
      <use x="126.806641" xlink:href="#DejaVuSans-2b"/>
      <use x="210.595703" xlink:href="#DejaVuSans-30"/>
      <use x="274.21875" xlink:href="#DejaVuSans-36"/>
      <use x="337.841797" xlink:href="#DejaVuSans-20"/>
      <use x="369.628906" xlink:href="#DejaVuSans-50"/>
      <use x="429.884766" xlink:href="#DejaVuSans-6f"/>
      <use x="491.066406" xlink:href="#DejaVuSans-69"/>
      <use x="518.849609" xlink:href="#DejaVuSans-6e"/>
      <use x="582.228516" xlink:href="#DejaVuSans-74"/>
      <use x="621.4375" xlink:href="#DejaVuSans-73"/>
      <use x="673.537109" xlink:href="#DejaVuSans-20"/>
      <use x="705.324219" xlink:href="#DejaVuSans-28"/>
      <use x="744.337891" xlink:href="#DejaVuSans-50"/>
      <use x="804.640625" xlink:href="#DejaVuSans-74"/>
      <use x="843.849609" xlink:href="#DejaVuSans-68"/>
      <use x="907.228516" xlink:href="#DejaVuSans-72"/>
      <use x="948.201172" xlink:href="#DejaVuSans-2e"/>
      <use x="979.988281" xlink:href="#DejaVuSans-20"/>
      <use x="1011.775391" xlink:href="#DejaVuSans-53"/>
      <use x="1075.251953" xlink:href="#DejaVuSans-70"/>
      <use x="1138.728516" xlink:href="#DejaVuSans-65"/>
      <use x="1200.251953" xlink:href="#DejaVuSans-65"/>
      <use x="1261.775391" xlink:href="#DejaVuSans-64"/>
      <use x="1325.251953" xlink:href="#DejaVuSans-75"/>
      <use x="1388.630859" xlink:href="#DejaVuSans-70"/>
      <use x="1452.107422" xlink:href="#DejaVuSans-29"/>
     </g>
    </g>
    <g id="patch_92">
     <path d="M 399.460625 103.308281 
L 417.460625 103.308281 
L 417.460625 97.008281 
L 399.460625 97.008281 
z
" style="fill:#8c564b;"/>
    </g>
    <g id="text_31">
     <!-- 1E+06 Points (Skel. Speedup) -->
     <g transform="translate(424.660625 103.308281)scale(0.09 -0.09)">
      <use xlink:href="#DejaVuSans-31"/>
      <use x="63.623047" xlink:href="#DejaVuSans-45"/>
      <use x="126.806641" xlink:href="#DejaVuSans-2b"/>
      <use x="210.595703" xlink:href="#DejaVuSans-30"/>
      <use x="274.21875" xlink:href="#DejaVuSans-36"/>
      <use x="337.841797" xlink:href="#DejaVuSans-20"/>
      <use x="369.628906" xlink:href="#DejaVuSans-50"/>
      <use x="429.884766" xlink:href="#DejaVuSans-6f"/>
      <use x="491.066406" xlink:href="#DejaVuSans-69"/>
      <use x="518.849609" xlink:href="#DejaVuSans-6e"/>
      <use x="582.228516" xlink:href="#DejaVuSans-74"/>
      <use x="621.4375" xlink:href="#DejaVuSans-73"/>
      <use x="673.537109" xlink:href="#DejaVuSans-20"/>
      <use x="705.324219" xlink:href="#DejaVuSans-28"/>
      <use x="744.337891" xlink:href="#DejaVuSans-53"/>
      <use x="807.814453" xlink:href="#DejaVuSans-6b"/>
      <use x="865.677734" xlink:href="#DejaVuSans-65"/>
      <use x="927.201172" xlink:href="#DejaVuSans-6c"/>
      <use x="954.984375" xlink:href="#DejaVuSans-2e"/>
      <use x="986.771484" xlink:href="#DejaVuSans-20"/>
      <use x="1018.558594" xlink:href="#DejaVuSans-53"/>
      <use x="1082.035156" xlink:href="#DejaVuSans-70"/>
      <use x="1145.511719" xlink:href="#DejaVuSans-65"/>
      <use x="1207.035156" xlink:href="#DejaVuSans-65"/>
      <use x="1268.558594" xlink:href="#DejaVuSans-64"/>
      <use x="1332.035156" xlink:href="#DejaVuSans-75"/>
      <use x="1395.414062" xlink:href="#DejaVuSans-70"/>
      <use x="1458.890625" xlink:href="#DejaVuSans-29"/>
     </g>
    </g>
   </g>
  </g>
 </g>
 <defs>
  <clipPath id="pc1b5682d30">
   <rect height="200.448" width="357.12" x="34.240625" y="22.318125"/>
  </clipPath>
 </defs>
</svg>
